<svg xmlns="http://www.w3.org/2000/svg" width="32" height="32" viewBox="0 0 32 32" fill="none"><g clip-path="url(#clip0)"><path d="M17.5 16.3209C17.5 19.0325 16.5387 20.75 14.9723 22.3372C14.1762 23.1438 13.2264 23.9135 12.1523 24.7647C12.0355 24.8573 11.9172 24.9508 11.7977 25.0453C10.9213 25.7384 9.9747 26.4869 8.994 27.3398C8.0802 26.5725 7.2052 25.889 6.39345 25.2549C6.17957 25.0879 5.97008 24.9242 5.76544 24.7634C4.68438 23.9138 3.7414 23.1447 2.95864 22.3398C1.41922 20.7569 0.5 19.0394 0.5 16.3208C0.5 13.6936 1.96449 12.0691 3.63452 11.6258C5.29728 11.1844 7.29404 11.8789 8.45886 14.1884C8.68187 14.6306 9.31815 14.6305 9.54114 14.1884C10.706 11.8787 12.7027 11.1843 14.3655 11.6257C16.0355 12.0691 17.5 13.6937 17.5 16.3209Z" fill="white" stroke="black"></path><path d="M31.5 16.3209C31.5 19.0325 30.5387 20.75 28.9723 22.3372C28.1762 23.1438 27.2264 23.9135 26.1523 24.7647C26.0355 24.8573 25.9172 24.9508 25.7977 25.0453C24.9213 25.7384 23.9747 26.4869 22.994 27.3398C22.0802 26.5725 21.2052 25.889 20.3934 25.2549C20.1796 25.0879 19.9701 24.9242 19.7654 24.7634C18.6844 23.9138 17.7414 23.1447 16.9586 22.3398C15.4192 20.7569 14.5 19.0394 14.5 16.3208C14.5 13.6936 15.9645 12.0691 17.6345 11.6258C19.2973 11.1844 21.294 11.8789 22.4589 14.1884C22.6819 14.6306 23.3181 14.6305 23.5411 14.1884C24.706 11.8787 26.7027 11.1843 28.3655 11.6257C30.0355 12.0691 31.5 13.6937 31.5 16.3209Z" fill="white" stroke="black"></path><rect x="15" y="2" width="1" height="5" fill="black"></rect><rect x="24.3611" y="3.13907" width="1" height="5" transform="rotate(35.3572 24.3611 3.13907)" fill="black"></rect><rect width="1" height="5" transform="matrix(-0.842361 0.538914 0.538914 0.842361 6.75195 3.09195)" fill="black"></rect></g><defs><clipPath id="clip0"><rect width="32" height="32" fill="white"></rect></clipPath></defs></svg>