<svg xmlns="http://www.w3.org/2000/svg" width="32" height="32" viewBox="0 0 32 32" fill="none"><circle cx="10.5" cy="8.5" r="6" fill="#F6EBE7" stroke="black"></circle><path d="M20.5 21C20.5 21.2244 20.4454 21.3931 20.3559 21.5301C20.2638 21.6711 20.1165 21.8057 19.8921 21.9289C19.4298 22.1829 18.7171 22.3476 17.7643 22.4398C16.4267 22.5693 14.763 22.5466 12.9249 22.5217C12.1442 22.511 11.332 22.5 10.5 22.5C9.88421 22.5 9.27833 22.5039 8.68751 22.5076C6.61171 22.5208 4.72188 22.5329 3.24144 22.3722C2.28841 22.2688 1.57015 22.099 1.10269 21.8494C0.663853 21.6151 0.5 21.3472 0.5 21C0.5 20.8803 0.543373 20.6803 0.669459 20.3995C0.792279 20.1259 0.97971 19.8063 1.23103 19.4569C1.73346 18.7584 2.4702 17.9704 3.389 17.2304C5.23147 15.7465 7.74909 14.5 10.5 14.5C13.2509 14.5 15.7685 15.7465 17.611 17.2304C18.5298 17.9704 19.2665 18.7584 19.769 19.4569C20.0203 19.8063 20.2077 20.1259 20.3305 20.3995C20.4566 20.6803 20.5 20.8803 20.5 21Z" fill="#F6EBE7" stroke="black"></path><circle cx="21.5" cy="16.5" r="6" fill="#F6EBE7" stroke="black"></circle><path d="M31.5 29C31.5 29.2244 31.4454 29.3931 31.3559 29.5301C31.2638 29.6711 31.1165 29.8057 30.8921 29.9289C30.4298 30.1829 29.7171 30.3476 28.7643 30.4398C27.4267 30.5693 25.763 30.5466 23.9249 30.5217C23.1442 30.511 22.332 30.5 21.5 30.5C20.8842 30.5 20.2783 30.5039 19.6875 30.5076C17.6117 30.5208 15.7219 30.5329 14.2414 30.3722C13.2884 30.2688 12.5701 30.099 12.1027 29.8494C11.6639 29.6151 11.5 29.3472 11.5 29C11.5 28.8803 11.5434 28.6803 11.6695 28.3995C11.7923 28.1259 11.9797 27.8063 12.231 27.4569C12.7335 26.7584 13.4702 25.9704 14.389 25.2304C16.2315 23.7465 18.7491 22.5 21.5 22.5C24.2509 22.5 26.7685 23.7465 28.611 25.2304C29.5298 25.9704 30.2665 26.7584 30.769 27.4569C31.0203 27.8063 31.2077 28.1259 31.3305 28.3995C31.4566 28.6803 31.5 28.8803 31.5 29Z" fill="#F6EBE7" stroke="black"></path></svg>