<svg xmlns="http://www.w3.org/2000/svg" width="32" height="32" viewBox="0 0 32 32" fill="none"><circle cx="16" cy="16" r="15.5" fill="#F6EBE7" stroke="black"></circle><rect x="14" y="1" width="1" height="9" fill="black"></rect><rect x="17" y="1" width="1" height="9" fill="black"></rect><rect x="15" y="1" width="2" height="8" fill="white"></rect><rect x="15" y="23" width="2" height="8" fill="white"></rect><rect x="23" y="17" width="2" height="8" transform="rotate(-90 23 17)" fill="white"></rect><rect x="1" y="17" width="2" height="8" transform="rotate(-90 1 17)" fill="white"></rect><rect x="14" y="22" width="1" height="9" fill="black"></rect><rect x="17" y="22" width="1" height="9" fill="black"></rect><rect x="22" y="18" width="1" height="9" transform="rotate(-90 22 18)" fill="black"></rect><rect x="1" y="18" width="1" height="9" transform="rotate(-90 1 18)" fill="black"></rect><rect x="22" y="15" width="1" height="9" transform="rotate(-90 22 15)" fill="black"></rect><rect x="1" y="15" width="1" height="9" transform="rotate(-90 1 15)" fill="black"></rect><circle cx="16" cy="16" r="7.5" fill="white" stroke="black"></circle></svg>