<svg xmlns="http://www.w3.org/2000/svg" width="124" height="32" viewBox="0 0 124 32" fill="none"><g clip-path="url(#clip0)"><mask id="path-1-inside-1" fill="white"><path fill-rule="evenodd" clip-rule="evenodd" d="M7.62048 31.3352H-2.94842C-3.01719 31.3352 -3.01719 31.0514 -2.94842 31.0514H0.0740581L0.0807998 1.30055L-2.9491 1.30594V1.00188H6.10554C9.96134 1.00188 14.7752 1.74957 14.9464 8.0595C15.1157 14.2811 9.85347 15.4232 7.44384 15.4232C11.2996 15.4232 16.0124 18.3014 16.0124 23.422C16.013 27.5104 12.6123 31.3352 7.62048 31.3352ZM5.58976 1.30594L3.83412 1.29583V15.1771H6.62265C9.03295 15.1771 11.0064 12.6468 10.9922 8.23142C10.9767 3.30228 8.79091 1.30594 5.58976 1.30594ZM6.31252 15.6612H3.83345L3.83278 31.0514H6.75952C9.78942 31.0514 11.5309 28.2015 11.5842 23.6803C11.6482 18.3553 9.54872 15.6612 6.31252 15.6612ZM26.9366 31.2914V31.0736L30.255 31.0757L27.8218 22.3696H19.8446L18.1483 28.6229C17.9458 29.4355 17.762 30.2526 17.5968 31.0736H20.8269V31.2914H14.2237V31.0736H17.259C17.259 31.0736 17.4262 30.301 17.8388 28.6229L25.4823 0L34.2706 31.077L37.3235 31.0797V31.2907H26.9366V31.2914ZM23.9343 6.76165L19.8419 22.0413H27.6378L23.9343 6.76165ZM39.5012 31.2914L52.4743 1.08615H46.2021C41.5905 1.15627 40.2906 6.7967 40.2124 12.7736C40.2017 13.5732 40.1376 14.6283 40.1005 15.8109C40.1005 15.8109 39.8902 15.823 39.8902 15.79L39.9043 0.780059H56.3921L43.6078 31.077L49.3203 31.0851C54.8327 30.9051 55.9269 26.9171 56.1224 15.8143H56.3746V31.284L39.5012 31.2914ZM121.991 31.6353C121.461 31.8975 120.826 32 120.083 32C116.966 32.0007 115.899 29.7124 116.024 23.6513V20.8546C116.024 17.0676 114.203 15.7536 111.311 15.7536H108.522L108.53 31.0986H112.124L112.126 31.2692H101.741L101.731 31.108L104.785 31.1026L104.771 1.05918L101.741 1.0639V0.757807H111.518C116.269 0.757807 120.196 2.05431 120.203 8.24558C120.209 13.4781 115.964 15.4778 112.659 15.4778C117.547 15.4778 120.447 17.5267 119.88 23.7376L119.77 27.6102C119.77 29.8054 120.056 31.4262 121.31 31.4195C121.71 31.4168 122.097 31.3231 122.36 31.0318C122.642 30.7197 122.804 30.2369 122.841 29.9288C122.859 29.769 122.929 29.3935 122.887 28.9782C122.887 28.9782 122.904 24.5075 122.887 24.4859C122.9 24.5028 123.129 24.4859 123.129 24.4859L123.123 27.2724C123.152 29.7684 123.15 30.0731 122.939 30.5713C122.802 30.8983 122.512 31.377 121.991 31.6353ZM110.76 1.08615H108.519L108.522 15.2702H111.311C114.444 15.2702 115.954 13.3129 116.172 8.41818C116.411 3.04406 113.721 1.08615 110.76 1.08615ZM70.4804 31.2975V31.0885L73.8002 31.0905L71.367 22.3757H63.3897L61.6934 28.629C61.491 29.4416 61.3071 30.2587 61.1419 31.0797H64.3721V31.2968H57.7689V31.0797H60.8035C60.8035 31.0797 60.9707 30.3071 61.384 28.629L69.0268 0.00606455L77.8151 31.0871L80.8686 31.0905V31.2968H70.4804V31.2975ZM67.4781 6.76906L63.3857 22.048H71.1823L67.4781 6.76906Z"></path></mask><path fill-rule="evenodd" clip-rule="evenodd" d="M7.62048 31.3352H-2.94842C-3.01719 31.3352 -3.01719 31.0514 -2.94842 31.0514H0.0740581L0.0807998 1.30055L-2.9491 1.30594V1.00188H6.10554C9.96134 1.00188 14.7752 1.74957 14.9464 8.0595C15.1157 14.2811 9.85347 15.4232 7.44384 15.4232C11.2996 15.4232 16.0124 18.3014 16.0124 23.422C16.013 27.5104 12.6123 31.3352 7.62048 31.3352ZM5.58976 1.30594L3.83412 1.29583V15.1771H6.62265C9.03295 15.1771 11.0064 12.6468 10.9922 8.23142C10.9767 3.30228 8.79091 1.30594 5.58976 1.30594ZM6.31252 15.6612H3.83345L3.83278 31.0514H6.75952C9.78942 31.0514 11.5309 28.2015 11.5842 23.6803C11.6482 18.3553 9.54872 15.6612 6.31252 15.6612ZM26.9366 31.2914V31.0736L30.255 31.0757L27.8218 22.3696H19.8446L18.1483 28.6229C17.9458 29.4355 17.762 30.2526 17.5968 31.0736H20.8269V31.2914H14.2237V31.0736H17.259C17.259 31.0736 17.4262 30.301 17.8388 28.6229L25.4823 0L34.2706 31.077L37.3235 31.0797V31.2907H26.9366V31.2914ZM23.9343 6.76165L19.8419 22.0413H27.6378L23.9343 6.76165ZM39.5012 31.2914L52.4743 1.08615H46.2021C41.5905 1.15627 40.2906 6.7967 40.2124 12.7736C40.2017 13.5732 40.1376 14.6283 40.1005 15.8109C40.1005 15.8109 39.8902 15.823 39.8902 15.79L39.9043 0.780059H56.3921L43.6078 31.077L49.3203 31.0851C54.8327 30.9051 55.9269 26.9171 56.1224 15.8143H56.3746V31.284L39.5012 31.2914ZM121.991 31.6353C121.461 31.8975 120.826 32 120.083 32C116.966 32.0007 115.899 29.7124 116.024 23.6513V20.8546C116.024 17.0676 114.203 15.7536 111.311 15.7536H108.522L108.53 31.0986H112.124L112.126 31.2692H101.741L101.731 31.108L104.785 31.1026L104.771 1.05918L101.741 1.0639V0.757807H111.518C116.269 0.757807 120.196 2.05431 120.203 8.24558C120.209 13.4781 115.964 15.4778 112.659 15.4778C117.547 15.4778 120.447 17.5267 119.88 23.7376L119.77 27.6102C119.77 29.8054 120.056 31.4262 121.31 31.4195C121.71 31.4168 122.097 31.3231 122.36 31.0318C122.642 30.7197 122.804 30.2369 122.841 29.9288C122.859 29.769 122.929 29.3935 122.887 28.9782C122.887 28.9782 122.904 24.5075 122.887 24.4859C122.9 24.5028 123.129 24.4859 123.129 24.4859L123.123 27.2724C123.152 29.7684 123.15 30.0731 122.939 30.5713C122.802 30.8983 122.512 31.377 121.991 31.6353ZM110.76 1.08615H108.519L108.522 15.2702H111.311C114.444 15.2702 115.954 13.3129 116.172 8.41818C116.411 3.04406 113.721 1.08615 110.76 1.08615ZM70.4804 31.2975V31.0885L73.8002 31.0905L71.367 22.3757H63.3897L61.6934 28.629C61.491 29.4416 61.3071 30.2587 61.1419 31.0797H64.3721V31.2968H57.7689V31.0797H60.8035C60.8035 31.0797 60.9707 30.3071 61.384 28.629L69.0268 0.00606455L77.8151 31.0871L80.8686 31.0905V31.2968H70.4804V31.2975ZM67.4781 6.76906L63.3857 22.048H71.1823L67.4781 6.76906Z" fill="black" stroke="black" stroke-width="25.9395" mask="url(#path-1-inside-1)"></path><path fill-rule="evenodd" clip-rule="evenodd" d="M91.9144 31.3059V31.0888L95.2342 31.0901L92.8009 22.3841H84.8237L83.126 28.638C82.7478 30.1867 82.5759 31.0888 82.5759 31.0888H85.8047V31.3059H79.2021V31.0928L82.2374 31.0888C82.2374 31.0888 82.4046 30.3161 82.8179 28.638L90.4608 0.0151367L99.2491 31.0915L102.301 31.0955V31.3059H91.9144ZM88.9121 6.77678L84.8197 22.0564H92.6162L88.9121 6.77678Z" fill="black"></path><path fill-rule="evenodd" clip-rule="evenodd" d="M73.0804 2.32457V3.81862H73.5395V3.93998H72.0293V3.81862H72.4878V0.802208H72.0293V0.680176H73.5395V0.802208H73.0804V2.20254H74.3128V0.802208H73.8544V0.680176H75.3646V0.802208H74.9068V3.81862H75.3646V3.93998H73.8544V3.81862H74.3128V2.32457H73.0804ZM76.7515 2.25176C76.7515 2.12501 76.5249 2.07579 76.446 2.07579C76.2694 2.07579 76.0523 2.16883 76.1224 2.2612C76.1501 2.3003 76.1871 2.40278 76.1871 2.49582C76.1871 2.62257 76.0712 2.71022 75.9647 2.71022C75.8345 2.71022 75.724 2.6374 75.724 2.48099C75.724 2.1095 76.1784 1.97803 76.4602 1.97803C76.6604 1.97803 76.8735 2.01242 77.0542 2.1095C77.183 2.17827 77.2254 2.25648 77.2254 2.4075V3.70535C77.2254 3.7694 77.2807 3.79839 77.3373 3.79839C77.3926 3.79839 77.4627 3.72558 77.4992 3.68648L77.5544 3.75457C77.4331 3.91099 77.3084 4.01347 77.1149 4.01347C76.9106 4.01347 76.7804 3.882 76.7528 3.66692C76.6737 3.77233 76.5717 3.85832 76.4544 3.91837C76.3371 3.97842 76.2076 4.01094 76.0759 4.01347C75.7981 4.01347 75.5952 3.85233 75.5952 3.54017C75.5952 2.95901 76.3368 2.83765 76.7528 2.86192V2.25176H76.7515ZM76.7515 2.9644C76.4642 2.9644 76.0799 3.0035 76.0799 3.39859C76.0799 3.61366 76.1629 3.7748 76.3813 3.7748C76.5431 3.7748 76.6631 3.64333 76.7198 3.48691C76.745 3.40491 76.7558 3.31911 76.7515 3.23341V2.9644ZM78.4855 2.52953C78.6345 2.2612 78.7963 1.97803 79.1348 1.97803C79.3155 1.97803 79.5049 2.07579 79.5049 2.29558C79.5049 2.48571 79.3795 2.56864 79.2137 2.56864C79.1551 2.56612 79.0997 2.5416 79.0584 2.49998C79.0172 2.45835 78.9932 2.40269 78.9912 2.34413C78.9912 2.32457 78.9952 2.29558 79.0006 2.27131C79.0141 2.1931 79.0188 2.16411 78.9676 2.16411C78.8793 2.16411 78.8334 2.21266 78.7727 2.27671C78.5974 2.46211 78.4855 2.72573 78.4855 3.36488V3.81862H78.9029V3.94065H77.7109V3.81862H77.9846V2.12973H77.6798V2.0077C77.9205 2.01713 78.2024 1.99758 78.4855 1.98814V2.52953ZM80.3726 2.38323H80.3821C80.4798 2.15872 80.7097 1.97803 80.9525 1.97803C81.4568 1.97803 81.8188 2.4756 81.8188 2.98867C81.8188 3.48152 81.4514 4.01414 80.9525 4.01414C80.701 4.01414 80.4886 3.91166 80.3821 3.6676H80.3726V4.96073H80.6963V5.08276H79.5373V4.96073H79.8717V2.12973H79.5332V2.0077C79.8056 2.01713 80.0888 1.99758 80.372 1.98814V2.38323H80.3726ZM81.2666 2.49987C81.2666 2.23692 81.1965 2.07512 80.914 2.07512C80.6416 2.07512 80.3726 2.45132 80.3726 2.63673V3.27116C80.3726 3.58872 80.5897 3.91571 80.9046 3.91571C81.1365 3.91571 81.2666 3.79367 81.2666 3.54489V2.49987ZM82.5969 2.86192V3.25229C82.5969 3.59411 82.6151 3.91571 83.0101 3.91571C83.3432 3.91571 83.5974 3.6622 83.6911 3.32982H83.8071C83.6857 3.80311 83.3661 4.01347 82.9171 4.01347C82.4128 4.01347 82.0467 3.50107 82.0467 3.00283C82.0467 2.46616 82.4627 1.97736 82.9683 1.97736C83.3992 1.97736 83.7976 2.28952 83.7976 2.77292C83.7976 2.8754 83.7558 2.86057 83.6817 2.86057H82.5969V2.86192ZM83.2738 2.73989C83.2738 2.41289 83.3526 2.07579 82.9407 2.07579C82.5564 2.07579 82.5969 2.43245 82.5969 2.73989H83.2738ZM84.7617 2.52953C84.9107 2.2612 85.0725 1.97803 85.411 1.97803C85.5917 1.97803 85.7811 2.07579 85.7811 2.29558C85.7811 2.48571 85.6557 2.56864 85.4885 2.56864C85.43 2.56597 85.3747 2.5414 85.3335 2.49981C85.2923 2.45822 85.2682 2.40264 85.266 2.34413C85.266 2.32457 85.2714 2.29558 85.2768 2.27131C85.2903 2.1931 85.295 2.16411 85.2438 2.16411C85.1555 2.16411 85.1096 2.21266 85.0489 2.27671C84.8723 2.46211 84.7617 2.72573 84.7617 3.36488V3.81862H85.1791V3.94065H83.9871V3.81862H84.2608V2.12973H83.9554V2.0077C84.1961 2.01713 84.4779 1.99758 84.7611 1.98814V2.52953H84.7617ZM86.6253 1.58227C86.6253 1.92409 86.4028 2.2167 86.1432 2.39739C86.1014 2.41155 86.0549 2.39267 86.0549 2.33873C86.0549 2.31918 86.1284 2.26052 86.1432 2.25108C86.309 2.13377 86.4911 1.82633 86.4911 1.62609C86.4911 1.58699 86.4729 1.42653 86.4122 1.42653C86.3569 1.42653 86.3475 1.46091 86.3387 1.50473C86.3151 1.61193 86.2174 1.68543 86.0926 1.68543C85.9349 1.68543 85.8384 1.53373 85.8384 1.37798C85.8384 1.17774 85.9915 1.05099 86.1756 1.05099C86.4722 1.05032 86.6253 1.29438 86.6253 1.58227ZM86.7082 3.93998H86.6333V3.24217H86.7587C86.8059 3.58872 86.9961 3.91571 87.3473 3.91571C87.5516 3.91571 87.7687 3.7694 87.7687 3.52534C87.7687 3.28128 87.557 3.25701 87.3156 3.22262C86.8376 3.15385 86.6569 2.94956 86.6569 2.57335C86.6569 2.20254 86.8976 1.97803 87.2401 1.97803C87.4019 1.97803 87.5651 2.03196 87.6946 2.13444L87.768 2.0077H87.8469V2.58347H87.7269C87.6993 2.31985 87.499 2.07579 87.2395 2.07579C87.0588 2.07579 86.8639 2.18838 86.8639 2.41289C86.8639 2.5592 86.8875 2.61313 87.3049 2.68595C87.7262 2.75876 87.9669 2.83765 87.9669 3.33993C87.9669 3.80851 87.7208 4.01347 87.3049 4.01347C87.1518 4.01347 86.9522 3.92043 86.841 3.80851L86.7082 3.93998Z" fill="black"></path></g><defs><clipPath id="clip0"><rect width="124" height="32" fill="white"></rect></clipPath></defs></svg>