<svg xmlns="http://www.w3.org/2000/svg" width="124" height="32" viewBox="0 0 124 32" fill="none"><path fill-rule="evenodd" clip-rule="evenodd" d="M9.45106 31.5234H7V32H20.4809V23.4894H20.0723C20.0723 23.4894 20.0723 28.3915 18.4383 30.0255C17.0766 31.3872 15.6468 31.5234 13.2638 31.5234V15.8638C13.2638 15.8638 14.8979 15.7277 15.7149 16.5447C16.9404 17.7702 17.0766 19.4043 17.0766 21.583H17.4851V9.6H17.0766C17.0766 11.7787 16.9404 13.4128 15.7149 14.6383C14.8979 15.4553 13.2638 15.3191 13.2638 15.3191V0.476596C15.6468 0.476596 16.7362 0.612766 18.0979 1.97447C19.7319 3.60851 19.7319 8.51064 19.7319 8.51064H20.1404V0H7V0.476596H9.45106V31.5234Z" fill="black"></path><path fill-rule="evenodd" clip-rule="evenodd" d="M45.2638 0.476596V31.5234C47.6468 31.5234 49.0766 31.3872 50.4383 30.0255C52.0723 28.3915 52.0723 23.4894 52.0723 23.4894H52.4809V32H39V31.5234H41.4511V0.476596H39V0H47.4426V0.476596H45.2638Z" fill="black"></path><path fill-rule="evenodd" clip-rule="evenodd" d="M77.0597 0.476596V31.5234C79.4427 31.5234 80.8725 31.3872 82.2342 30.0255C83.8682 28.3915 83.8682 23.4894 83.8682 23.4894H84.2767V32H70.7959V31.5234H73.247V0.476596H70.7959V0H79.2384V0.476596H77.0597Z" fill="black"></path><path fill-rule="evenodd" clip-rule="evenodd" d="M105.042 31.5234H102.591V32H116.072V23.4894H115.664C115.664 23.4894 115.664 28.3915 114.03 30.0255C112.668 31.3872 111.238 31.5234 108.855 31.5234V15.8638C108.855 15.8638 110.489 15.7277 111.306 16.5447C112.532 17.7702 112.668 19.4043 112.668 21.583H113.076V9.6H112.668C112.668 11.7787 112.532 13.4128 111.306 14.6383C110.489 15.4553 108.855 15.3191 108.855 15.3191V0.476596C111.238 0.476596 112.327 0.612766 113.689 1.97447C115.323 3.60851 115.323 8.51064 115.323 8.51064H115.732V0H102.591V0.476596H105.042V31.5234Z" fill="black"></path><path fill-rule="evenodd" clip-rule="evenodd" d="M114.166 30.6381C114.166 30.2296 114.506 29.8892 114.915 29.8892C115.323 29.8892 115.664 30.2296 115.664 30.6381C115.664 31.0466 115.323 31.387 114.915 31.387C114.575 31.4551 114.166 31.1147 114.166 30.6381ZM115.664 30.6381C115.664 30.2977 115.392 29.9572 114.983 29.9572C114.575 29.9572 114.302 30.2296 114.302 30.6381C114.302 31.0466 114.575 31.3189 114.983 31.3189C115.323 31.3189 115.664 31.0466 115.664 30.6381ZM115.323 31.1147H115.255L114.983 30.7062H114.779V31.1147H114.711V30.2977H115.051C115.255 30.2977 115.323 30.3658 115.323 30.5019C115.323 30.6381 115.187 30.7062 115.051 30.7062L115.323 31.1147ZM114.983 30.6381C115.119 30.6381 115.323 30.6381 115.323 30.5019C115.323 30.3658 115.187 30.3658 115.119 30.3658H114.847V30.6381H114.983Z" fill="black"></path></svg>