<svg xmlns="http://www.w3.org/2000/svg" width="124" height="32" viewBox="0 0 124 32" fill="none"><path d="M36.7055 1.13208C29.7701 1.18167 24.0972 8.88983 24.0972 15.6131C24.0972 22.6883 28.2557 31.3188 36.7055 31.2908C45.1554 31.2628 49.5411 21.9713 49.5411 15.6131C49.5411 8.59004 43.6409 1.0825 36.7055 1.13208ZM36.7055 1.39579C42.5102 1.39579 44.0762 7.80659 44.0762 15.6131C44.0762 25.9137 42.1872 30.9955 36.7055 30.9858C31.2239 30.9761 29.4406 26.8169 29.4406 15.6131C29.4406 8.59486 30.9009 1.39579 36.7055 1.39579Z" fill="black"></path><path d="M51.8312 15.8034C51.8001 8.15339 57.9228 1.37691 63.1058 1.0407C64.9779 0.908064 67.3844 1.76539 68.7894 2.37612C69.8096 2.8196 71.8922 2.17768 72.262 1H72.4636V11.4208H72.262C72.262 10.9766 70.3321 1.3027 63.1058 1.3027C57.7682 1.3027 57.2525 10.6881 57.2525 15.8034C57.2525 20.9187 57.408 31.0453 63.6368 31.0453C66.6542 31.0453 68.8876 29.7252 69.4666 27.0545V18.934H66.9339V18.5881H76.7511V18.934H74.3297V30.8061H74.1326C74.1326 30.8061 73.7389 29.0931 71.7414 29.0989C69.1884 29.1062 66.7807 31.3242 63.8457 31.2972C56.0837 31.2258 51.8623 23.4535 51.8312 15.8034Z" fill="black"></path><path d="M5.05678 2.15855H2V1.81494H12.7081V2.15855H10.0217L17.6728 22.9367C20.0654 15.5708 21.9189 10.1259 24.4131 2.15855H21.756V1.81494H27.4099V2.15855H24.8351L15.5359 31.1481L5.05678 2.15855Z" fill="black"></path><path d="M78.2505 24.0513L78.2021 2.12579H75.2925V1.79736H86.012V2.12579H83.1041L83.1687 26.166C83.8124 28.9188 84.9569 31.0075 88.8671 31.0386C92.7773 31.0697 95.4355 28.7255 96.4234 25.5219V2.12579H93.095L93.0949 1.80704H120.338L120.394 12.3322H120.133C119.627 5.53648 117.005 2.96821 112.419 2.21895C110.841 1.96112 109.186 2.15225 107.093 2.13598V15.5688C108.915 15.7096 110.857 15.5944 112.165 14.4708C113.354 13.4491 113.691 11.0884 113.778 10.1294H114.009V21.8252H113.759C113.687 21.8252 113.592 18.8902 112.165 17.4977C110.729 16.0961 108.9 15.7515 107.093 16.0854V30.4347C109.646 30.4347 111.68 30.6509 113.447 30.1664C118.819 28.6938 120.71 24.1623 120.695 19.6173H120.994V30.7744H99.6254V30.4347H102.041V2.12579H96.8212V25.5219C96.2296 27.7605 94.0671 31.4639 88.5251 31.4386C83.3722 31.4151 78.2616 29.092 78.2505 24.0513Z" fill="black"></path></svg>