<svg width="24" height="24" viewBox="0 0 24 24" fill="none" xmlns="http://www.w3.org/2000/svg">
<path d="M7.44 6.5C7.44 5.30653 7.91411 4.16193 8.75802 3.31802C9.60194 2.47411 10.7465 2 11.94 2C13.1335 2 14.2781 2.47411 15.122 3.31802C15.9659 4.16193 16.44 5.30653 16.44 6.5H7.44ZM6.44 6.5H4.88C4.62486 6.49954 4.37919 6.59662 4.19329 6.77137C4.00739 6.94612 3.89531 7.18532 3.88 7.44L3 22.44C2.99181 22.5763 3.01161 22.7128 3.05818 22.8411C3.10476 22.9695 3.17712 23.0869 3.27081 23.1862C3.36449 23.2855 3.47752 23.3646 3.60293 23.4186C3.72834 23.4725 3.86347 23.5002 4 23.5H19.88C20.0165 23.5002 20.1517 23.4725 20.2771 23.4186C20.4025 23.3646 20.5155 23.2855 20.6092 23.1862C20.7029 23.0869 20.7752 22.9695 20.8218 22.8411C20.8684 22.7128 20.8882 22.5763 20.88 22.44L20 7.44C19.9847 7.18532 19.8726 6.94612 19.6867 6.77137C19.5008 6.59662 19.2551 6.49954 19 6.5H17.44C17.44 5.04131 16.8605 3.64236 15.8291 2.61091C14.7976 1.57946 13.3987 1 11.94 1C10.4813 1 9.08236 1.57946 8.05091 2.61091C7.01946 3.64236 6.44 5.04131 6.44 6.5V6.5Z" fill="#F6EBE7"/>
<path d="M20 7.44C19.9847 7.18532 19.8726 6.94612 19.6867 6.77137C19.5008 6.59662 19.2551 6.49954 19 6.5H17.44C17.44 5.04131 16.8605 3.64236 15.8291 2.61091C14.7976 1.57946 13.3987 1 11.94 1C10.4813 1 9.08236 1.57946 8.05091 2.61091C7.01946 3.64236 6.44 5.04131 6.44 6.5H4.88C4.62486 6.49954 4.37919 6.59662 4.19329 6.77137C4.00739 6.94612 3.89531 7.18532 3.88 7.44L3 22.44C2.99181 22.5763 3.01161 22.7128 3.05818 22.8411C3.10476 22.9695 3.17712 23.0869 3.27081 23.1862C3.36449 23.2855 3.47752 23.3646 3.60293 23.4186C3.72834 23.4725 3.86347 23.5002 4 23.5H19.88C20.0165 23.5002 20.1517 23.4725 20.2771 23.4186C20.4025 23.3646 20.5155 23.2855 20.6092 23.1862C20.7029 23.0869 20.7752 22.9695 20.8218 22.8411C20.8684 22.7128 20.8882 22.5763 20.88 22.44L20 7.44ZM7.55 5.5C7.77451 4.50334 8.33147 3.61274 9.12931 2.97463C9.92715 2.33652 10.9184 1.98889 11.94 1.98889C12.9616 1.98889 13.9529 2.33652 14.7507 2.97463C15.5485 3.61274 16.1055 4.50334 16.33 5.5C16.4023 5.82845 16.4391 6.1637 16.44 6.5H7.44C7.44086 6.1637 7.47774 5.82845 7.55 5.5V5.5ZM4 22.5L4.88 7.5H19L19.88 22.5H4Z" fill="black"/>
<path d="M7.94 9.5H6.94V10.5H7.94V9.5Z" fill="black"/>
<path d="M16.94 9.5H15.94V10.5H16.94V9.5Z" fill="black"/>
</svg>
