<svg xmlns="http://www.w3.org/2000/svg" width="48" height="48" viewBox="0 0 48 48" fill="none"><path fill-rule="evenodd" clip-rule="evenodd" d="M35.9905 18.5902L27.9947 18.3326C27.9982 18.2225 28 18.1116 28 18C28 17.8884 27.9982 17.7775 27.9947 17.6674L35.9905 17.4098C35.9968 17.6057 36 17.8025 36 18C36 18.1975 35.9968 18.3943 35.9905 18.5902ZM31.1376 5.69534L25.2998 11.1652C25.1499 11.0052 24.9948 10.8501 24.8348 10.7002L30.3047 4.86236C30.5913 5.13091 30.8691 5.40873 31.1376 5.69534ZM18.5902 0.00949434L18.3326 8.00535C18.2225 8.0018 18.1116 8 18 8C17.8884 8 17.7775 8.0018 17.6674 8.00535L17.4098 0.00949428C17.6057 0.00318091 17.8025 0 18 0C18.1975 0 18.3943 0.00318093 18.5902 0.00949434ZM5.69534 4.86236L11.1652 10.7002C11.0052 10.8501 10.8501 11.0052 10.7002 11.1652L4.86236 5.69534C5.13091 5.40873 5.40873 5.13091 5.69534 4.86236ZM0.00949434 17.4098C0.00318093 17.6057 0 17.8025 0 18C0 18.1975 0.00318091 18.3943 0.00949428 18.5902L8.00535 18.3326C8.0018 18.2225 8 18.1116 8 18C8 17.8884 8.0018 17.7775 8.00535 17.6674L0.00949434 17.4098ZM4.86236 30.3047L10.7002 24.8348C10.8501 24.9948 11.0052 25.1499 11.1652 25.2998L5.69534 31.1376C5.40873 30.8691 5.13091 30.5913 4.86236 30.3047ZM17.4098 35.9905L17.6674 27.9947C17.7775 27.9982 17.8884 28 18 28C18.1116 28 18.2225 27.9982 18.3326 27.9947L18.5902 35.9905C18.3943 35.9968 18.1975 36 18 36C17.8025 36 17.6057 35.9968 17.4098 35.9905ZM30.3047 31.1376L24.8348 25.2998C24.9948 25.1499 25.1499 24.9948 25.2998 24.8348L31.1376 30.3047C30.8691 30.5913 30.5913 30.8691 30.3047 31.1376Z" fill="black"></path><path d="M30.2971 44.995L19.682 19.6821L44.9949 30.2972C45.4105 30.4714 45.4016 31.0632 44.9811 31.2249L35.0461 35.0461L31.2249 44.9811C31.0632 45.4016 30.4714 45.4105 30.2971 44.995Z" fill="#F6EBE7"></path><path fill-rule="evenodd" clip-rule="evenodd" d="M18.7482 18.7483L45.1882 29.836C46.0192 30.1845 46.0015 31.3681 45.1605 31.6915L35.4329 35.4329L31.6915 45.1605C31.368 46.0016 30.1844 46.0193 29.8359 45.1883L18.7482 18.7483ZM35.1697 34.4627L44.8015 30.7582L21.8335 21.1265L35.1697 34.4627ZM21.1264 21.8336L34.4626 35.1698L30.7581 44.8016L21.1264 21.8336Z" fill="black"></path></svg>