<svg xmlns="http://www.w3.org/2000/svg" width="512.000000pt" height="512.000000pt" viewBox="0 0 512.000000 512.000000" preserveAspectRatio="xMidYMid meet"><g transform="translate(0.000000,512.000000) scale(0.100000,-0.100000)" fill="#000000" stroke="none"><path d="M2405 5114 c-207 -22 -539 -128 -604 -193 -43 -43 -12 -121 48 -121 16 0 66 18 113 39 132 61 280 102 438 121 263 31 570 -23 802 -141 l41 -21 -153 -59 c-428 -165 -902 -403 -1208 -606 -233 -154 -428 -332 -502 -460 l-36 -61 -93 130 -94 130 32 95 c72 219 178 394 345 571 61 64 106 120 106 131 0 35 -43 74 -80 74 -29 0 -46 -13 -139 -109 -147 -151 -277 -352 -346 -537 -10 -26 -19 -46 -21 -45 -1 2 -34 180 -73 395 -39 216 -77 406 -86 423 -18 34 -62 60 -103 60 -51 0 -646 -109 -680 -125 -36 -16 -72 -68 -72 -102 0 -34 407 -1836 436 -1933 48 -158 135 -294 256 -404 40 -36 288 -223 551 -416 439 -321 482 -350 527 -356 l50 -7 0 -147 c0 -127 -2 -149 -17 -162 -10 -9 -112 -43 -228 -76 -415 -121 -583 -190 -755 -311 -216 -151 -326 -331 -351 -576 -18 -176 4 -249 91 -293 l44 -22 1916 0 1916 0 44 23 c55 27 86 72 95 135 8 61 -10 241 -31 312 -48 160 -160 306 -324 422 -76 53 -178 108 -201 108 -32 0 -69 -40 -69 -74 0 -42 13 -56 85 -96 180 -98 298 -222 354 -373 23 -63 47 -243 37 -282 l-6 -25 -1900 0 -1899 0 -6 20 c-9 28 3 161 21 234 44 182 192 340 429 458 120 60 248 106 514 185 279 82 320 99 349 140 38 55 42 89 42 334 0 131 4 240 8 243 5 3 36 -8 70 -24 85 -40 222 -86 314 -104 179 -37 378 -7 596 89 42 18 84 35 92 37 13 3 16 -32 20 -252 6 -288 11 -310 82 -357 50 -33 532 -177 565 -168 34 8 58 62 44 98 -14 36 -31 42 -292 118 -118 34 -222 68 -231 77 -16 13 -18 35 -18 162 l0 147 50 7 c41 5 68 20 162 89 922 673 957 701 1046 830 65 95 94 154 126 257 29 97 436 1899 436 1933 0 34 -36 86 -72 102 -34 16 -630 125 -680 125 -41 0 -85 -26 -103 -60 -9 -17 -47 -207 -86 -423 -39 -215 -72 -393 -73 -395 -2 -1 -11 19 -21 45 -32 86 -112 237 -176 333 -76 115 -279 322 -391 398 -204 139 -400 221 -638 267 -82 16 -351 28 -435 19z m-1631 -361 c3 -16 35 -194 71 -398 36 -203 70 -382 75 -397 5 -15 115 -173 244 -352 l235 -324 46 -258 c26 -141 44 -268 40 -281 -18 -71 -109 -96 -165 -46 -29 27 -32 37 -76 283 -24 140 -50 270 -55 288 -17 51 -71 68 -117 36 -31 -22 -29 -54 23 -347 33 -188 51 -265 71 -304 38 -76 102 -121 188 -132 45 -5 50 -9 58 -36 5 -21 77 -103 221 -250 118 -121 222 -236 233 -255 26 -50 25 -143 -4 -197 -12 -24 -26 -43 -30 -43 -9 0 -879 637 -969 710 -108 87 -209 238 -247 370 -19 65 -416 1827 -416 1845 0 8 96 29 278 62 152 28 280 51 284 52 3 1 9 -11 12 -26z m3879 -29 c174 -31 267 -51 267 -59 0 -18 -397 -1780 -416 -1845 -36 -125 -145 -290 -245 -371 -71 -57 -949 -700 -964 -705 -9 -4 -22 10 -36 38 -30 55 -31 147 -5 198 11 19 115 134 233 255 144 147 216 229 221 250 8 27 13 31 58 36 54 7 81 18 131 57 58 43 79 105 128 381 52 295 54 323 23 345 -30 21 -71 20 -97 -1 -17 -15 -29 -62 -71 -298 -48 -272 -51 -281 -80 -307 -56 -52 -147 -26 -165 45 -4 14 14 140 40 282 l46 257 235 324 c129 179 239 337 244 352 5 15 39 194 75 397 83 468 73 427 93 421 10 -2 137 -26 285 -52z m-1162 -97 c206 -176 356 -402 440 -661 l31 -95 -94 -130 c-84 -117 -94 -128 -102 -108 -35 87 -83 179 -128 244 -107 155 -289 304 -456 373 -144 61 -249 81 -446 88 l-180 7 171 77 c274 124 634 267 674 268 9 0 49 -28 90 -63z m-506 -465 c166 -46 319 -136 436 -258 106 -111 176 -231 219 -373 l23 -73 -42 -59 -42 -60 -50 -274 c-27 -151 -49 -288 -49 -304 0 -43 27 -111 60 -153 17 -20 30 -44 30 -54 0 -9 -96 -116 -213 -238 -118 -122 -220 -233 -227 -246 -8 -14 -21 -50 -30 -80 -16 -52 -20 -57 -81 -89 -138 -75 -336 -131 -459 -131 -123 0 -321 56 -459 131 -61 32 -65 37 -81 89 -9 30 -22 66 -30 80 -7 13 -109 124 -227 246 -117 122 -213 229 -213 238 0 9 15 36 34 61 21 27 39 67 47 100 11 52 9 73 -39 340 l-51 284 -41 59 -42 59 16 55 c41 143 222 323 512 511 128 83 240 147 273 158 14 4 166 7 336 5 282 -2 317 -5 390 -24z"></path><path d="M1894 3262 c-116 -41 -148 -94 -96 -154 20 -23 60 -23 113 2 24 11 62 20 84 20 22 0 60 -9 84 -20 55 -25 86 -25 111 0 25 25 26 81 2 103 -63 57 -209 81 -298 49z"></path><path d="M3021 3261 c-78 -28 -105 -51 -109 -94 -2 -26 3 -42 17 -56 26 -26 57 -26 112 -1 24 11 62 20 84 20 22 0 60 -9 84 -20 55 -25 93 -25 116 0 23 26 24 74 1 99 -54 59 -210 86 -305 52z"></path><path d="M2241 2441 c-27 -27 -28 -82 -2 -105 11 -10 55 -29 98 -44 70 -23 93 -26 223 -26 130 0 153 3 223 26 43 15 87 34 98 44 26 23 25 78 -2 105 -24 24 -52 23 -164 -10 -46 -13 -100 -20 -155 -20 -55 0 -109 7 -155 20 -112 33 -140 34 -164 10z"></path></g></svg>