<svg width="32" height="32" viewBox="0 0 32 32" fill="none" xmlns="http://www.w3.org/2000/svg">
<g clip-path="url(#clip0)">
<rect x="29.5" y="9" width="1" height="9" fill="black"/>
<path d="M28.5 23.5V19.6901L29.5579 18.5H30.4421L31.5 19.6901V23.5H28.5Z" stroke="black"/>
<path d="M1.54527 9.46521C1.12293 9.29885 1.12293 8.70115 1.54527 8.53479L15.8167 2.91313C15.9345 2.86675 16.0655 2.86675 16.1832 2.91313L30.4547 8.53479C30.8771 8.70115 30.8771 9.29885 30.4547 9.46521L16.1832 15.0869C16.0655 15.1333 15.9345 15.1333 15.8167 15.0869L1.54527 9.46521Z" fill="#F6EBE7" stroke="black"/>
<path d="M6.5 15.477C6.5 15.1233 6.85726 14.8814 7.1857 15.0128L15.4429 18.3157C15.8005 18.4587 16.1995 18.4587 16.5571 18.3157L24.8143 15.0128C25.1427 14.8814 25.5 15.1233 25.5 15.477V23.323C25.5 23.5274 25.3755 23.7113 25.1857 23.7872L16.1857 27.3872C16.0665 27.4349 15.9335 27.4349 15.8143 27.3872L6.81431 23.7872C6.62448 23.7113 6.5 23.5274 6.5 23.323V15.477Z" fill="#F6EBE7" stroke="black"/>
</g>
<defs>
<clipPath id="clip0">
<rect width="32" height="32" fill="white"/>
</clipPath>
</defs>
</svg>
