<svg xmlns="http://www.w3.org/2000/svg" width="192" height="27" viewBox="0 0 192 27" fill="none"><path d="M20.4077 19.0273H20.2583C20.2334 22.8042 17.0791 26.0747 12.3809 26.0747C6.4624 26.0747 4.39551 19.4341 4.39551 13.25C4.39551 7.06592 6.4624 0.425293 12.3809 0.425293C16.2241 0.425293 19.9014 3.34717 19.9263 7.47266H20.0757V0.5H19.9346L17.9175 2.45898C16.4316 1.03125 14.3232 0.159668 12.0322 0.159668C5.13428 0.159668 0.477539 5.67139 0.477539 13.25C0.477539 20.8286 5.13428 26.3403 12.0322 26.3403C14.6802 26.3403 16.9214 25.4189 18.4238 23.8999L20.2666 26H20.4077V19.0273ZM23.9923 25.8423V26H35.049V25.8423H30.965V0.657715H35.049V0.5H23.9923V0.657715H27.7277V25.8423H23.9923ZM43.2737 25.8423V26H53.9817V25.8423H50.2464V0.657715H53.6331C57.6092 0.657715 58.6219 3.83691 58.6219 8.15332H58.7879V0.5H38.4676V8.15332H38.617C38.617 3.83691 39.6297 0.657715 43.6057 0.657715H47.0091V25.8423H43.2737ZM69.2123 25.8423V26H78.9076V25.8423H75.5043V12.9761L82.2363 0.657715H85.1996V0.5H78.0942V0.657715H82.037L75.3881 12.8433L68.0834 0.657715H71.769V0.5H61.9076V0.657715H64.3481L72.267 13.7563V25.8423H69.2123ZM99.0025 16.2217V16.3877H102.572V21.75C102.232 22.4971 101.011 26.1743 96.7945 26.1743C91.0504 26.1743 89.6558 19.4341 89.6558 13.25C89.6558 7.06592 91.7227 0.425293 97.6412 0.425293C101.526 0.425293 105.162 3.28906 105.187 7.47266H105.336V0.5H105.195L103.161 2.44238C101.675 1.02295 99.5753 0.159668 97.2925 0.159668C90.3946 0.159668 85.7379 5.67139 85.7379 13.25C85.7379 20.8286 89.7222 26.3403 96.7945 26.3403C102.339 26.3403 105.12 22.5303 106.141 20.3887V16.3877H108.183V16.2217H99.0025ZM109.236 0.5V0.657715H112.291V18.1807C112.291 24.0659 114.905 26.5063 120.791 26.5063C126.161 26.5063 128.353 23.792 128.353 18.1807V0.657715H131.698V0.5H125.008V0.657715H128.203V18.1807C128.203 23.6675 125.97 26.2407 121.471 26.2407C116.574 26.2407 115.528 22.3311 115.528 17.8403V0.657715H118.931V0.5H109.236ZM134.452 25.8423V26H145.509V25.8423H141.425V0.657715H145.509V0.5H134.452V0.657715H138.188V25.8423H134.452ZM157.743 26C164.981 26 169.995 20.4883 169.995 13.25C169.995 6.01172 165.322 0.5 157.743 0.5H148.23V0.657715H151.285V25.8423H148.23V26H157.743ZM157.743 0.657715C163.662 0.657715 166.077 7.06592 166.077 13.25C166.077 19.4341 164.002 25.8423 157.743 25.8423H154.522V0.657715H157.743ZM184.786 16.5454H184.943V9.24072H184.786C184.786 11.5151 183.101 12.7188 181.167 12.7188H179.125V0.657715H184.902C188.878 0.657715 190.563 3.83691 190.563 7.47266H190.721V0.5H172.833V0.657715H175.887V25.8423H172.833V26H191.069V18.3467H190.912C190.912 22.6631 189.227 25.8423 184.57 25.8423H179.125V12.8848H181.167C183.101 12.8848 184.786 14.271 184.786 16.5454Z" fill="black"></path></svg>