<svg xmlns="http://www.w3.org/2000/svg" width="167" height="28" viewBox="0 0 167 28" fill="none"><path d="M19.0547 27V19.3467H17.8096C17.8096 23.6631 17.3696 25.7549 12.0322 25.7549H6.76123V2.74512H9.81592V1.5H0.469238V2.74512H3.53223V25.7549H0.469238V27H19.0547ZM23.5109 25.7549V27H34.5592V25.7549H30.4835V2.74512H34.5592V1.5H23.5109V2.74512H27.2462V25.7549H23.5109ZM38.8494 25.7549V27H48.5364V25.7549H45.1414V14.9307H46.6687C49.6238 14.9307 50.5784 15.6113 50.5784 17.8857H51.8235V10.9214H50.5784C50.5784 13.1958 49.6238 13.7021 46.6687 13.7021H45.1414V2.74512H50.5784C54.5545 2.74512 55.6751 4.83691 55.6751 8.47266H56.9202V1.5H38.8494V2.74512H41.9124V25.7549H38.8494ZM73.1137 17.5454H74.3588V10.2407H73.1137C73.1137 12.5151 71.9848 13.1875 70.0507 13.1875H68.017V2.74512H73.7944C77.7704 2.74512 78.891 4.83691 78.891 8.47266H80.1362V1.5H61.725V2.74512H64.788V25.7549H61.725V27H80.4765V19.3467H79.2314C79.2314 23.6631 78.1108 25.7549 73.454 25.7549H68.017V14.4326H70.0507C71.9848 14.4326 73.1137 15.271 73.1137 17.5454ZM85.4639 25.7549V27H91.5401V25.7549H89.1578V3.26807L97.9649 27.3403H99.5172L107.918 2.50439V25.7549H105.195V27H113.529V25.7549H111.147V2.74512H113.529V1.5H106.946L99.6915 22.9243L91.7808 1.5H85.2979V2.74512H87.8463V25.7549H85.4639ZM117.836 25.7549V27H125.315V25.7549H122.21L124.451 19.2969H133.607L135.691 25.7549H132.437V27H142.298V25.7549H139.401L130.826 0.993652H129.565L120.791 25.7549H117.836ZM129.191 5.65039L133.2 18.0518H124.883L129.191 5.65039ZM157.645 16.5991V18.0103H161.214V22.75C160.874 23.4971 159.654 26.0869 155.437 26.0869C149.693 26.0869 148.29 20.4341 148.29 14.25C148.29 8.06592 150.365 2.5791 156.284 2.5791C159.82 2.5791 162.916 4.6626 163.256 8.47266H164.51V1.5H163.422L161.92 3.30127C160.318 1.96484 158.151 1.15967 155.943 1.15967C149.045 1.15967 144.38 6.67139 144.38 14.25C144.38 21.8286 148.365 27.3403 155.437 27.3403C160.982 27.3403 163.763 23.5303 164.784 21.3887V18.0103H166.826V16.5991H157.645Z" fill="black"></path></svg>