<svg xmlns="http://www.w3.org/2000/svg" width="168" height="28" viewBox="0 0 168 28" fill="none"><path d="M36.758 0.893999C36.758 1.122 36.3273 1.24867 35.466 1.274C34.5033 1.29933 33.8573 1.616 33.528 2.224C33.224 2.832 32.7427 4.124 32.084 6.1C30.944 9.57067 29.9307 12.522 29.044 14.954C27.524 19.1087 26.1433 23.124 24.902 27C24.8007 27.3293 24.674 27.494 24.522 27.494C24.3953 27.494 24.2687 27.3673 24.142 27.114C24.0407 26.8607 23.7113 25.974 23.154 24.454C22.4447 22.478 21.672 20.4893 20.836 18.488C20.1773 16.9173 19.5313 15.296 18.898 13.624C17.1247 17.9053 15.364 22.3767 13.616 27.038C13.5147 27.342 13.388 27.494 13.236 27.494C13.1093 27.494 12.9573 27.2787 12.78 26.848C11.9947 24.9733 9.08133 17.2087 4.04 3.554C3.68533 2.59133 3.41933 1.996 3.242 1.768C3.06467 1.51467 2.62133 1.37533 1.912 1.35C0.696 1.29933 0.088 1.122 0.088 0.818C0.088 0.59 0.290667 0.475999 0.696 0.475999C0.873333 0.475999 1.02533 0.488666 1.152 0.513999C2.49467 0.59 3.93867 0.628 5.484 0.628C5.788 0.628 6.30733 0.615333 7.042 0.589998C7.802 0.539332 8.77733 0.513999 9.968 0.513999H10.386C10.8167 0.513999 11.032 0.627999 11.032 0.855999C11.032 1.13467 10.6393 1.28666 9.854 1.312C8.28333 1.36267 7.498 1.56533 7.498 1.92C7.498 2.62933 9.82867 9.22867 14.49 21.718C16.1873 17.4367 17.454 14.2827 18.29 12.256L14.528 2.528C14.3253 1.996 14.0847 1.654 13.806 1.502C13.5527 1.35 13.0713 1.26133 12.362 1.236C11.6527 1.21067 11.298 1.09667 11.298 0.893999C11.298 0.615333 11.564 0.475999 12.096 0.475999C12.5013 0.475999 12.9953 0.501332 13.578 0.551998C14.1607 0.602666 15.174 0.628 16.618 0.628H19.506L23.686 0.703999C24.6233 0.703999 25.7507 0.653332 27.068 0.551998C27.22 0.526665 27.3973 0.513999 27.6 0.513999C28.208 0.513999 28.512 0.640666 28.512 0.893999C28.512 1.122 28.2967 1.236 27.866 1.236H27.22C26.08 1.236 25.2187 1.388 24.636 1.692C24.3827 1.81867 23.914 2.73067 23.23 4.428C22.926 5.13733 22.4193 6.34067 21.71 8.038C21.558 8.418 21.33 8.988 21.026 9.748C21.2033 10.2547 21.7607 11.6607 22.698 13.966C23.914 16.9047 24.9147 19.4253 25.7 21.528C27.1187 17.424 28.7907 12.5727 30.716 6.974C31.7293 4.01 32.236 2.36333 32.236 2.034C32.236 1.55267 31.7927 1.312 30.906 1.312C29.6647 1.312 29.044 1.17266 29.044 0.893999C29.044 0.640666 29.2973 0.513999 29.804 0.513999C30.2347 0.513999 30.5767 0.526665 30.83 0.551998C31.3873 0.602666 31.894 0.628 32.35 0.628L35.39 0.589998C36.15 0.589998 36.568 0.627998 36.644 0.703999C36.72 0.754665 36.758 0.817998 36.758 0.893999ZM23.04 2.034C23.04 1.578 22.2547 1.35 20.684 1.35H20.228L19.582 1.388C18.67 1.43867 18.214 1.60333 18.214 1.882C18.214 1.93267 18.9613 4.124 20.456 8.456C21.0387 7.18933 21.7227 5.51733 22.508 3.44C22.6093 3.16133 22.7613 2.794 22.964 2.338C23.0147 2.13533 23.04 2.034 23.04 2.034ZM62.9442 13.966C62.9442 17.7407 61.8042 20.9327 59.5242 23.542C57.2695 26.1513 54.4955 27.456 51.2022 27.456C47.7062 27.456 44.7675 26.1387 42.3862 23.504C40.0048 20.844 38.8142 17.576 38.8142 13.7C38.8142 9.748 39.9542 6.518 42.2342 4.01C44.5395 1.47667 47.4782 0.209998 51.0502 0.209998C54.4195 0.209998 57.2442 1.52733 59.5242 4.162C61.8042 6.79667 62.9442 10.0647 62.9442 13.966ZM58.6882 14.156C58.6882 9.52 57.7382 5.91 55.8382 3.326C54.6475 1.70467 52.9882 0.893999 50.8602 0.893999C48.8335 0.893999 47.2628 1.51467 46.1482 2.756C44.0962 5.036 43.0702 8.74733 43.0702 13.89C43.0702 17.9687 43.7795 21.1353 45.1982 23.39C46.6422 25.6447 48.6562 26.772 51.2402 26.772C53.6468 26.772 55.4582 25.708 56.6742 23.58C58.0168 21.224 58.6882 18.0827 58.6882 14.156ZM90.4458 0.969998C90.4458 1.22333 90.1291 1.33733 89.4958 1.312L88.6598 1.274H87.9758C87.5704 1.274 87.3298 1.35 87.2538 1.502C87.1778 1.62867 87.1398 2.04667 87.1398 2.756V24.644C87.1398 25.9867 87.1271 26.772 87.1018 27C87.0764 27.228 87.0004 27.342 86.8738 27.342C86.7218 27.342 86.5444 27.2027 86.3418 26.924L81.4778 19.818C78.6658 15.6887 75.2458 10.5333 71.2178 4.352L71.2558 25.556C71.2811 25.8853 71.4711 26.1007 71.8258 26.202C72.1804 26.278 73.0291 26.3287 74.3718 26.354C74.7011 26.354 74.8658 26.4553 74.8658 26.658C74.8658 26.9113 74.5364 27.038 73.8778 27.038C73.6498 27.038 72.9278 27 71.7118 26.924C71.3064 26.8987 70.9138 26.886 70.5338 26.886C70.5591 26.886 70.3311 26.9113 69.8498 26.962C69.3938 27.0127 68.6844 27.038 67.7218 27.038H67.3418C66.7591 27.038 66.4678 26.924 66.4678 26.696C66.4678 26.468 66.7211 26.354 67.2278 26.354C68.7224 26.3287 69.5838 26.24 69.8118 26.088C70.0651 25.9107 70.1918 25.366 70.1918 24.454V5.72C70.1918 3.61733 69.7611 2.3 68.8998 1.768C68.4944 1.51467 67.7724 1.388 66.7338 1.388C66.0751 1.388 65.7458 1.26133 65.7458 1.008C65.7458 0.779999 65.9358 0.665999 66.3158 0.665999C66.8224 0.665999 67.4684 0.678666 68.2538 0.703999C69.0391 0.729332 69.4571 0.741998 69.5078 0.741998C69.5838 0.741998 69.9384 0.729332 70.5718 0.703999C71.4078 0.703999 72.2184 0.691332 73.0038 0.665999L86.1138 20.16V3.25C86.1138 2.46467 86.1011 1.996 86.0758 1.844C86.0504 1.66667 85.9491 1.54 85.7718 1.464C85.5944 1.36266 84.9864 1.312 83.9478 1.312C83.0358 1.312 82.5798 1.198 82.5798 0.969998C82.5798 0.716665 82.8838 0.589998 83.4918 0.589998H84.8218C85.1511 0.589998 85.5058 0.589998 85.8858 0.589998C86.2911 0.615333 86.5318 0.628 86.6078 0.628C86.6331 0.628 86.8611 0.615333 87.2918 0.589998C87.6971 0.589998 88.0771 0.589998 88.4318 0.589998H89.6098C90.1671 0.589998 90.4458 0.716665 90.4458 0.969998ZM118.119 13.852C118.119 18.3107 116.561 21.7813 113.445 24.264C111.165 26.088 108.113 27 104.287 27C104.186 27 103.73 26.9873 102.919 26.962C102.134 26.9367 100.981 26.924 99.4613 26.924H97.5613L94.5593 26.962C94.3819 26.9873 94.1919 27 93.9893 27C93.5079 27 93.2673 26.8733 93.2673 26.62C93.2673 26.392 93.6726 26.278 94.4833 26.278C95.5219 26.278 96.1679 26.088 96.4213 25.708C96.5226 25.5307 96.5733 25.0493 96.5733 24.264V3.782C96.5733 2.54067 96.4719 1.81867 96.2693 1.616C96.0919 1.41333 95.4459 1.312 94.3313 1.312C93.7486 1.312 93.4573 1.17266 93.4573 0.893999C93.4573 0.691332 93.6726 0.589998 94.1033 0.589998C94.0779 0.589998 94.3566 0.602665 94.9393 0.628C95.5219 0.653333 96.0919 0.665999 96.6493 0.665999H100.715C105.275 0.665999 108.505 0.982666 110.405 1.616C112.711 2.376 114.573 3.88333 115.991 6.138C117.41 8.36733 118.119 10.9387 118.119 13.852ZM113.863 13.7C113.863 9.49467 113.04 6.41667 111.393 4.466C109.747 2.49 107.175 1.502 103.679 1.502C101.982 1.502 100.956 1.67933 100.601 2.034C100.449 2.21133 100.373 2.81933 100.373 3.858V24.074C100.373 24.7833 100.386 25.214 100.411 25.366C100.462 25.518 100.576 25.6447 100.753 25.746C101.361 26.05 102.641 26.202 104.591 26.202C107.327 26.202 109.531 25.2393 111.203 23.314C112.977 21.2873 113.863 18.0827 113.863 13.7ZM142.584 20.844C142.584 20.9453 142.559 21.566 142.508 22.706C142.458 23.846 142.432 24.9353 142.432 25.974V27.228C139.95 27.1013 135.035 27.038 127.688 27.038C126.802 27.038 125.928 27.0507 125.066 27.076C124.205 27.076 123.622 27.076 123.318 27.076H122.938C122.457 27.076 122.216 26.962 122.216 26.734C122.216 26.582 122.292 26.4933 122.444 26.468C122.52 26.468 123.002 26.43 123.888 26.354C124.547 26.3033 124.94 26.164 125.066 25.936C125.218 25.708 125.294 25.1127 125.294 24.15V2.794C125.294 2.05933 125.18 1.62867 124.952 1.502C124.75 1.35 124.066 1.274 122.9 1.274C122.495 1.274 122.292 1.16 122.292 0.931998C122.292 0.703998 122.571 0.589998 123.128 0.589998L129.626 0.628C129.854 0.628 131.286 0.615333 133.92 0.589998C136.555 0.589998 138.328 0.589998 139.24 0.589998C140 0.589998 140.697 0.539331 141.33 0.437998C141.381 1.52733 141.495 3.03467 141.672 4.96L141.824 6.594C141.85 6.72067 141.862 6.88533 141.862 7.088C141.862 7.34133 141.748 7.468 141.52 7.468C141.242 7.468 141.039 7.15133 140.912 6.518C140.431 4.238 139.646 2.794 138.556 2.186C137.746 1.73 135.618 1.502 132.172 1.502H129.056V12.636H129.968C132.806 12.636 134.528 12.4207 135.136 11.99C135.77 11.5593 136.2 10.3053 136.428 8.228C136.479 7.696 136.618 7.43 136.846 7.43C137.125 7.43 137.264 7.658 137.264 8.114C137.264 8.57 137.239 9.24133 137.188 10.128C137.138 11.0147 137.112 11.686 137.112 12.142C137.112 14.8527 137.163 16.7147 137.264 17.728C137.29 17.9813 137.302 18.1967 137.302 18.374C137.302 18.7033 137.163 18.868 136.884 18.868C136.707 18.868 136.58 18.7667 136.504 18.564C136.454 18.336 136.352 17.6267 136.2 16.436C135.998 14.9413 135.377 14.0167 134.338 13.662C133.882 13.51 132.692 13.434 130.766 13.434H129.056V26.202C134.63 26.202 137.898 26.088 138.86 25.86C140.532 25.48 141.482 23.8587 141.71 20.996C141.761 20.3627 141.926 20.046 142.204 20.046C142.458 20.046 142.584 20.312 142.584 20.844ZM167.438 25.86C167.438 26.924 166.551 27.456 164.778 27.456C162.802 27.456 161.256 26.6327 160.142 24.986C159.66 24.2767 159.344 23.5927 159.192 22.934C159.065 22.2753 158.862 20.6033 158.584 17.918C158.432 16.2967 157.912 15.1567 157.026 14.498C156.139 13.814 154.695 13.4467 152.694 13.396V25.366C152.694 25.8727 153.099 26.1893 153.91 26.316C154.138 26.3413 154.72 26.3667 155.658 26.392C155.987 26.392 156.152 26.4933 156.152 26.696C156.152 26.924 155.936 27.038 155.506 27.038H155.05C154.822 27.0127 153.72 27 151.744 27C151.364 27 150.718 27.0127 149.806 27.038C148.919 27.038 148.336 27.038 148.058 27.038H146.576C146.018 27.038 145.74 26.924 145.74 26.696C145.74 26.5187 146.107 26.4173 146.842 26.392C148.032 26.3667 148.678 26.2147 148.78 25.936C148.881 25.8093 148.932 25.3153 148.932 24.454V3.478C148.932 2.46467 148.818 1.85666 148.59 1.654C148.387 1.45133 147.741 1.33733 146.652 1.312C146.018 1.312 145.702 1.198 145.702 0.969998C145.702 0.716665 145.904 0.589998 146.31 0.589998C146.386 0.589998 146.5 0.602665 146.652 0.628L151.706 0.741998C152.212 0.741998 152.922 0.729332 153.834 0.703999C154.847 0.653333 155.556 0.628 155.962 0.628C158.318 0.628 160.18 1.16 161.548 2.224C162.941 3.26267 163.638 4.68133 163.638 6.48C163.638 8.25333 162.928 9.72267 161.51 10.888C160.091 12.028 158.166 12.6993 155.734 12.902C155.506 12.9273 155.379 12.9653 155.354 13.016C155.354 13.1173 155.48 13.168 155.734 13.168C158.394 13.624 160.218 14.5613 161.206 15.98C162.219 17.3733 162.89 19.9067 163.22 23.58C163.422 25.6573 164.132 26.696 165.348 26.696C165.728 26.696 165.918 26.62 165.918 26.468C165.918 26.4427 165.905 26.4173 165.88 26.392C165.753 26.1133 165.69 25.8853 165.69 25.708C165.69 25.176 165.968 24.91 166.526 24.91C167.134 24.91 167.438 25.2267 167.438 25.86ZM159.572 6.822C159.572 3.19933 158.001 1.388 154.86 1.388C154.024 1.388 153.454 1.502 153.15 1.73C152.846 1.958 152.694 2.36333 152.694 2.946V12.598C155.126 12.6233 156.874 12.18 157.938 11.268C159.027 10.356 159.572 8.874 159.572 6.822Z" fill="black"></path></svg>