<svg width="48" height="48" viewBox="0 0 48 48" fill="none" xmlns="http://www.w3.org/2000/svg">
<g clip-path="url(#clip0)">
<path d="M3.89507 20.463C3.79755 20.3446 3.75982 20.1879 3.79272 20.038L7.33737 3.88974L6.85417 3.78368L7.33738 3.88974C7.38681 3.66453 7.58384 3.50232 7.81436 3.49707L24.3428 3.12052C24.4962 3.11703 24.6427 3.18415 24.7402 3.30261L44.7696 27.6327C44.9451 27.8459 44.9145 28.161 44.7013 28.3365L24.6282 44.8614C24.415 45.0369 24.0999 45.0063 23.9244 44.7931L3.89507 20.463Z" fill="#F6EBE7" stroke="black"/>
<circle cx="13.3731" cy="10.7355" r="2.5" transform="rotate(-39.4623 13.3731 10.7355)" fill="white" stroke="black"/>
<path d="M24.6582 21.4545L25.1106 20.1223C24.299 19.7296 23.1698 19.5647 22.0759 20.179L21.1605 19.0467L20.2171 19.8233L21.1543 20.9209C20.2427 21.9407 20.0949 23.2748 20.8137 24.148C21.8961 25.4628 23.4398 25.0675 24.3489 24.7401C25.4098 24.3719 26.4186 24.0634 27.0466 24.8261C27.5423 25.4283 27.4903 26.0605 26.7676 26.6554C25.9446 27.3329 24.9848 27.2307 23.7913 26.6809L23.3655 28.0249C24.507 28.6343 25.9131 28.706 27.0454 28.0769L27.9012 29.1573L28.8446 28.3807L27.9652 27.3534C29.0841 26.1966 29.1752 24.8755 28.2498 23.7514C27.217 22.4968 25.8008 22.7197 24.73 23.0962C23.6125 23.4773 22.6431 23.8543 22.073 23.1618C21.6516 22.6499 21.6966 22.0909 22.3991 21.5126C23.0716 20.959 23.8779 21.1203 24.6582 21.4545Z" fill="black"/>
</g>
<defs>
<clipPath id="clip0">
<rect width="48" height="48" fill="white"/>
</clipPath>
</defs>
</svg>
