<svg width="48" height="48" viewBox="0 0 48 48" fill="none" xmlns="http://www.w3.org/2000/svg">
<rect x="1.5" y="10.5" width="44" height="27" rx="0.5" fill="#F6EBE7" stroke="black"/>
<rect x="1" y="21" width="45" height="1" fill="black"/>
<rect x="34" y="10" width="1" height="27" fill="black"/>
<path d="M40.5 20.7559C40.5 22.6203 39.8286 23.796 38.7185 24.8954C38.1506 25.4578 37.4711 25.9963 36.6948 26.5975C36.6105 26.6628 36.5252 26.7288 36.4388 26.7955C35.8314 27.265 35.1748 27.7725 34.4942 28.347C33.8631 27.8321 33.2585 27.3705 32.6977 26.9423C32.5435 26.8246 32.3926 26.7094 32.2454 26.5963C31.4646 25.9966 30.7903 25.4587 30.2324 24.898C29.1428 23.803 28.5 22.6274 28.5 20.7559C28.5 18.9777 29.504 17.8919 30.6411 17.589C31.7745 17.287 33.1458 17.7339 33.9633 19.2752L34.405 19.0409L33.9633 19.2752C34.1906 19.7037 34.8094 19.7037 35.0367 19.2752C35.8542 17.7339 37.2255 17.2869 38.3589 17.589C39.4959 17.8919 40.5 18.9778 40.5 20.7559Z" fill="white" stroke="black"/>
</svg>
