<svg width="48" height="48" viewBox="0 0 48 48" fill="none" xmlns="http://www.w3.org/2000/svg">
<path d="M14.5 24.3503C10.59 19.7454 3 22.2781 3 28.7249C3 35.1717 9.9 38.3951 14.5 43C19.1 38.3951 26 35.1717 26 28.7249C26 22.2781 18.41 19.7454 14.5 24.3503Z" fill="#F6EBE7" stroke="black" stroke-miterlimit="10"/>
<path d="M36.5 9.79068C33.61 6.28221 28 8.21187 28 13.1237C28 18.0356 33.1 20.4915 36.5 24C39.9 20.4915 45 18.0356 45 13.1237C45 8.21187 39.39 6.28221 36.5 9.79068Z" fill="#F6EBE7" stroke="black" stroke-miterlimit="10"/>
<path d="M7 29C7 27.3431 8.34315 26 10 26" stroke="black"/>
</svg>
