<svg xmlns="http://www.w3.org/2000/svg" width="48" height="48" viewBox="0 0 48 48" fill="none"><path d="M34.5 22.2599C34.5 25.4707 33.3154 27.5107 31.3853 29.3932C30.4073 30.347 29.2416 31.256 27.9292 32.2572C27.7863 32.3662 27.6417 32.4762 27.4956 32.5874C26.4008 33.4208 25.2187 34.3207 23.9941 35.3497C22.85 34.4221 21.755 33.5987 20.7392 32.835C20.4776 32.6383 20.2212 32.4455 19.9707 32.256C18.6493 31.2563 17.4917 30.3478 16.5297 29.3957C14.6323 27.5177 13.5 25.4778 13.5 22.2598C13.5 19.1391 15.3146 17.1801 17.4245 16.6482C19.5317 16.1171 22.0291 16.9851 23.4622 19.7583C23.6869 20.193 24.3131 20.193 24.5378 19.7583C25.9709 16.985 28.4683 16.117 30.5755 16.6482C32.6854 17.1801 34.5 19.1392 34.5 22.2599Z" fill="#F6EBE7" stroke="black"></path><path fill-rule="evenodd" clip-rule="evenodd" d="M5.64655 23.793C5.64655 13.0329 13.9197 5.29297 24.1465 5.29297C31.772 5.29297 38.3032 9.59583 41.1376 16.2283L37.1924 14.5845L36.8077 15.5076L42.0294 17.6833L42.491 17.8756L42.6833 17.414L44.859 12.1923L43.9359 11.8077L42.1578 16.0752C39.2181 8.92776 32.2512 4.29297 24.1465 4.29297C13.3866 4.29297 4.64655 12.4616 4.64655 23.793H5.64655Z" fill="black"></path><path fill-rule="evenodd" clip-rule="evenodd" d="M42.8589 24.293C42.8589 35.053 34.5858 42.793 24.3589 42.793C16.7335 42.793 10.2022 38.4901 7.36785 31.8576L11.3131 33.5015L11.6978 32.5784L6.47604 30.4027L6.01451 30.2104L5.8222 30.6719L3.64648 35.8936L4.56956 36.2782L6.3477 32.0107C9.28735 39.1582 16.2543 43.793 24.3589 43.793C35.1189 43.793 43.8589 35.6243 43.8589 24.293H42.8589Z" fill="black"></path></svg>