<svg xmlns="http://www.w3.org/2000/svg" width="48" height="48" viewBox="0 0 48 48" fill="none"><path d="M24.048 5.125C24.2285 4.74338 24.7715 4.74338 24.952 5.125L28.8325 13.3292C29.1351 13.9689 29.8436 14.3101 30.5324 14.1478L39.3662 12.0665C39.7771 11.9697 40.1156 12.3942 39.9298 12.7733L35.9349 20.9224C35.6234 21.5578 35.7984 22.3245 36.3548 22.7619L43.4898 28.3707C43.8217 28.6316 43.7009 29.1609 43.2887 29.252L34.4267 31.2096C33.7356 31.3622 33.2453 31.9771 33.2503 32.6848L33.3137 41.7602C33.3167 42.1823 32.8275 42.4179 32.4993 42.1524L25.4434 36.4443C24.8932 35.9993 24.1068 35.9993 23.5566 36.4443L16.5007 42.1524C16.1725 42.4179 15.6833 42.1823 15.6863 41.7602L15.7497 32.6848C15.7547 31.9771 15.2644 31.3622 14.5733 31.2096L5.71135 29.252C5.29913 29.1609 5.17831 28.6316 5.51019 28.3707L12.6452 22.7619C13.2016 22.3245 13.3766 21.5578 13.0651 20.9224L9.0702 12.7733C8.88438 12.3942 9.22292 11.9697 9.63383 12.0665L18.4676 14.1478C19.1564 14.3101 19.8649 13.9689 20.1675 13.3292L24.048 5.125Z" fill="#F6EBE7" stroke="black"></path><circle cx="21.5" cy="21.5" r="2" fill="white" stroke="black"></circle><circle cx="27.5" cy="28.5" r="2" fill="white" stroke="black"></circle><rect x="29.8994" y="19" width="1" height="15" transform="rotate(45 29.8994 19)" fill="black"></rect></svg>