<svg xmlns="http://www.w3.org/2000/svg" width="48" height="48" viewBox="0 0 48 48" fill="none"><path d="M3.57272 28.4116L3.57272 28.4117C3.74646 28.7776 4.15837 29.2759 4.68632 29.8205C5.23032 30.3817 5.94456 31.0389 6.77597 31.729C8.39921 33.0764 10.49 34.5664 12.666 35.7215C12.8518 36.1609 13.223 37.1691 13.6537 38.3774C14.1366 39.7318 14.6804 41.2975 15.0891 42.4863C15.2974 43.0923 15.8672 43.5 16.5087 43.5H19.2446C19.8461 43.5 20.3895 43.1406 20.6249 42.587L21.8278 39.7587C21.9285 39.5217 22.21 39.3807 22.4965 39.458C23.534 39.7378 24.9078 39.9981 26.3139 40.0402C27.6594 40.0805 29.08 39.9226 30.2656 39.35C30.3644 39.5971 30.4822 39.9712 30.6128 40.4362C30.7281 40.8472 30.8449 41.2964 30.9611 41.7436C31.0187 41.9651 31.0762 42.1861 31.1333 42.4018C31.3068 43.0573 31.9011 43.5 32.5687 43.5H35.6946C36.3177 43.5 36.8758 43.1149 37.097 42.5324L40.4438 33.7168C42.459 31.5031 44.8058 27.6985 45.3724 23.3554C45.95 18.9273 44.6684 13.9799 39.4139 9.66535C29.2445 1.31501 19.9479 4.87636 16.2235 7.98126C15.5394 7.51588 14.5257 7.00262 13.3503 6.72411C11.9577 6.39413 10.3047 6.38703 8.70843 7.22116C8.43982 7.36152 8.14002 7.5693 7.95072 7.9184C7.7576 8.27456 7.72016 8.70096 7.82192 9.19727C8.00849 10.1072 8.69768 11.4135 10.1453 13.3931L7.34553 17.1551C6.46422 17.0779 5.34999 17.3659 4.42055 18.0377C3.34603 18.8143 2.49999 20.1154 2.50001 21.9896C2.50001 22.7854 2.69199 24.225 2.91207 25.513C3.02324 26.1636 3.14388 26.7887 3.25552 27.2918C3.36153 27.7697 3.47212 28.1998 3.57272 28.4116Z" fill="#F6EBE7" stroke="black"></path><path d="M26.0655 16.548V18.648H27.1015V16.548H26.0655ZM26.0655 27.328V29.568H27.1015V27.328H26.0655ZM28.5995 20.804L29.5655 20.16C29.4348 19.824 29.2295 19.4973 28.9495 19.18C28.6788 18.8533 28.3428 18.5873 27.9415 18.382C27.5401 18.1673 27.0735 18.06 26.5415 18.06C26.0095 18.06 25.5288 18.1673 25.0995 18.382C24.6701 18.5873 24.3295 18.872 24.0775 19.236C23.8255 19.5907 23.6995 19.992 23.6995 20.44C23.6995 20.888 23.7788 21.2707 23.9375 21.588C24.1055 21.9053 24.3155 22.176 24.5675 22.4C24.8195 22.6147 25.0855 22.792 25.3655 22.932C25.6548 23.072 25.9208 23.184 26.1635 23.268C26.5368 23.3987 26.8961 23.5527 27.2415 23.73C27.5961 23.9073 27.8855 24.1313 28.1095 24.402C28.3428 24.6727 28.4595 25.018 28.4595 25.438C28.4595 25.7647 28.3941 26.0493 28.2635 26.292C28.1421 26.5253 27.9555 26.7073 27.7035 26.838C27.4608 26.9593 27.1528 27.02 26.7795 27.02C26.3781 27.02 26.0188 26.9313 25.7015 26.754C25.3935 26.5767 25.1181 26.3247 24.8755 25.998C24.6328 25.6713 24.4135 25.284 24.2175 24.836L23.2095 25.438C23.4148 25.9793 23.6855 26.4507 24.0215 26.852C24.3668 27.2533 24.7681 27.5707 25.2255 27.804C25.6828 28.028 26.1775 28.14 26.7095 28.14C27.3628 28.14 27.9088 28.0233 28.3475 27.79C28.7861 27.5567 29.1175 27.23 29.3415 26.81C29.5748 26.3807 29.6915 25.8907 29.6915 25.34C29.6915 24.892 29.6121 24.5093 29.4535 24.192C29.2948 23.8653 29.0895 23.5947 28.8375 23.38C28.5855 23.156 28.3148 22.9693 28.0255 22.82C27.7361 22.6707 27.4655 22.5493 27.2135 22.456C26.9148 22.344 26.6301 22.232 26.3595 22.12C26.0888 21.9987 25.8461 21.868 25.6315 21.728C25.4168 21.5787 25.2488 21.406 25.1275 21.21C25.0061 21.014 24.9455 20.7853 24.9455 20.524C24.9455 20.2347 25.0015 19.992 25.1135 19.796C25.2255 19.6 25.3981 19.4507 25.6315 19.348C25.8741 19.2453 26.1821 19.194 26.5555 19.194C26.9195 19.194 27.2275 19.2733 27.4795 19.432C27.7315 19.5813 27.9461 19.782 28.1235 20.034C28.3008 20.2767 28.4595 20.5333 28.5995 20.804Z" fill="black"></path><circle cx="15" cy="17" r="1.5" fill="white" stroke="black"></circle><rect x="46" y="21" width="2" height="1" fill="black"></rect></svg>