<svg xmlns="http://www.w3.org/2000/svg" width="48" height="48" viewBox="0 0 48 48" fill="none"><path d="M14.5 28.8636H14.2726L14.1235 29.0347L14.1234 29.0347L14.1234 29.0348L14.1232 29.035L14.1225 29.0357L14.1173 29.0416L14.0935 29.068C14.0717 29.092 14.0383 29.1282 13.9937 29.1751C13.9045 29.2687 13.7709 29.4045 13.5974 29.5683C13.25 29.8963 12.7451 30.3343 12.1182 30.7718C10.8932 31.6266 9.24498 32.4498 7.41759 32.4978C7.39815 32.4259 7.37888 32.3198 7.36563 32.1736C7.3274 31.7517 7.35207 31.1636 7.40812 30.5451C7.46353 29.9336 7.54697 29.3193 7.61695 28.8559C7.65187 28.6247 7.68327 28.4322 7.70589 28.2978C7.7172 28.2306 7.7263 28.178 7.73254 28.1424L7.73966 28.1021L7.74145 28.0921L7.74188 28.0897L7.74197 28.0892L7.74198 28.0892L7.74199 28.0891L7.81097 27.7086L7.45991 27.5462C3.38514 25.6614 0.5 22.5557 0.5 18.9091C0.5 16.0886 2.01836 13.4976 4.54755 11.5947C7.07696 9.69175 10.594 8.5 14.5 8.5C18.406 8.5 21.923 9.69175 24.4524 11.5947C26.9816 13.4976 28.5 16.0886 28.5 18.9091C28.5 21.7241 26.9873 24.1986 24.4638 25.9878C21.9369 27.7795 18.4169 28.8636 14.5 28.8636Z" fill="#F6EBE7" stroke="black"></path><path d="M15.9275 17C15.9275 17.3547 15.8202 17.7 15.6055 18.036C15.3908 18.3627 15.0828 18.6333 14.6815 18.848C14.2802 19.0627 13.7995 19.17 13.2395 19.17H12.8755L13.1555 21.62H13.9955L14.0935 19.94C14.6162 19.912 15.1015 19.7673 15.5495 19.506C15.9975 19.2353 16.3615 18.8853 16.6415 18.456C16.9215 18.0173 17.0615 17.532 17.0615 17C17.0615 16.58 16.9822 16.1927 16.8235 15.838C16.6742 15.4833 16.4595 15.1753 16.1795 14.914C15.9088 14.6433 15.5868 14.4333 15.2135 14.284C14.8495 14.1347 14.4482 14.06 14.0095 14.06C13.4588 14.06 12.9922 14.13 12.6095 14.27C12.2362 14.4007 11.9188 14.592 11.6575 14.844C11.3962 15.0867 11.1582 15.3713 10.9435 15.698L11.8535 16.272C12.0682 15.9173 12.3388 15.6373 12.6655 15.432C13.0015 15.2173 13.4028 15.11 13.8695 15.11C14.2895 15.11 14.6535 15.1847 14.9615 15.334C15.2695 15.4833 15.5075 15.698 15.6755 15.978C15.8435 16.258 15.9275 16.5987 15.9275 17ZM12.8335 23.44C12.8335 23.6453 12.9082 23.8273 13.0575 23.986C13.2162 24.1353 13.3982 24.21 13.6035 24.21C13.8182 24.21 14.0002 24.1353 14.1495 23.986C14.2988 23.8273 14.3735 23.6453 14.3735 23.44C14.3735 23.2253 14.2988 23.0433 14.1495 22.894C14.0002 22.7447 13.8182 22.67 13.6035 22.67C13.3982 22.67 13.2162 22.7447 13.0575 22.894C12.9082 23.0433 12.8335 23.2253 12.8335 23.44Z" fill="black"></path><path d="M32 40H32.2269L32.376 40.1705L32.3761 40.1705L32.3761 40.1706L32.3763 40.1707L32.3772 40.1718L32.3831 40.1784L32.4097 40.2079C32.434 40.2345 32.4712 40.2747 32.5207 40.3265C32.6197 40.4301 32.7677 40.5801 32.9599 40.7609C33.3446 41.123 33.9037 41.6065 34.598 42.0895C35.9626 43.0388 37.8067 43.9565 39.8539 43.9985C39.8805 43.9151 39.9068 43.7835 39.9239 43.5954C39.9665 43.1267 39.939 42.4762 39.8771 41.7953C39.8158 41.1213 39.7236 40.4445 39.6463 39.9343C39.6077 39.6797 39.573 39.4676 39.548 39.3196C39.5355 39.2456 39.5254 39.1876 39.5185 39.1483L39.5107 39.1038L39.5087 39.0927L39.5082 39.0901L39.5081 39.0895L39.5081 39.0894L39.5081 39.0894L39.4387 38.7082L39.7906 38.5459C44.2952 36.4688 47.5 33.0391 47.5 29C47.5 25.879 45.8144 23.0153 43.0137 20.9147C40.2128 18.8141 36.3206 17.5 32 17.5C27.6794 17.5 23.7872 18.8141 20.9863 20.9147C18.1856 23.0153 16.5 25.879 16.5 29C16.5 32.1156 18.1799 34.8514 20.9749 36.827C23.7733 38.805 27.6685 40 32 40Z" fill="#F6EBE7" stroke="black"></path><circle cx="24.5" cy="28.5" r="2" fill="white" stroke="black"></circle><circle cx="31.5" cy="28.5" r="2" fill="white" stroke="black"></circle><circle cx="38.5" cy="28.5" r="2" fill="white" stroke="black"></circle></svg>