<svg xmlns="http://www.w3.org/2000/svg" width="48" height="48" viewBox="0 0 48 48" fill="none"><g clip-path="url(#clip0)"><circle cx="34.2196" cy="18.2195" r="7.71946" fill="#F6EBE7" stroke="black"></circle><path d="M46.8024 34.3339C46.8024 34.6687 46.725 34.9303 46.5938 35.144C46.461 35.3603 46.2565 35.5542 45.9639 35.7254C45.3643 36.076 44.4543 36.2969 43.2589 36.4201C41.5781 36.5932 39.4859 36.563 37.1808 36.5296C36.2042 36.5155 35.1893 36.5008 34.1513 36.5008C33.3822 36.5008 32.6248 36.5059 31.8857 36.5109C29.2846 36.5286 26.91 36.5447 25.0498 36.3298C23.854 36.1917 22.9382 35.9638 22.3334 35.62C21.7606 35.2944 21.5002 34.8905 21.5002 34.3339C21.5002 34.135 21.5656 33.8397 21.728 33.4544C21.8877 33.0759 22.1287 32.6394 22.4479 32.1669C23.0862 31.2222 24.0185 30.1617 25.1775 29.1679C27.5017 27.175 30.6782 25.5 34.1513 25.5C37.6244 25.5 40.8009 27.175 43.1251 29.1679C44.2841 30.1617 45.2163 31.2222 45.8547 32.1669C46.1739 32.6394 46.4149 33.0759 46.5745 33.4544C46.737 33.8397 46.8024 34.135 46.8024 34.3339Z" fill="#F6EBE7" stroke="black"></path><circle cx="15.2198" cy="23.2195" r="7.71946" fill="#F6EBE7" stroke="black"></circle><path d="M27.5005 39.2912C27.5005 39.6247 27.4239 39.8852 27.2944 40.0977C27.1633 40.3126 26.9616 40.5052 26.6732 40.675C26.0819 41.0232 25.1838 41.243 24.0025 41.3655C22.3416 41.5379 20.2743 41.5077 17.9961 41.4745C17.0305 41.4604 16.027 41.4458 15.0005 41.4458C14.2401 41.4458 13.4912 41.4509 12.7605 41.4559C10.1895 41.4735 7.84293 41.4895 6.00475 41.2757C4.82306 41.1383 3.9191 40.9116 3.3226 40.5701C2.75832 40.2471 2.50055 39.846 2.50055 39.2912C2.50055 39.0929 2.56528 38.7989 2.72585 38.4154C2.88365 38.0387 3.12186 37.6042 3.43735 37.134C4.06822 36.1938 4.98951 35.1384 6.13493 34.1494C8.43204 32.166 11.5704 30.5 15.0005 30.5C18.4307 30.5 21.5691 32.166 23.8662 34.1494C25.0116 35.1384 25.9329 36.1938 26.5638 37.134C26.8792 37.6042 27.1174 38.0387 27.2752 38.4154C27.4358 38.7989 27.5005 39.0929 27.5005 39.2912Z" fill="#F6EBE7" stroke="black"></path></g><defs><clipPath id="clip0"><rect width="48" height="48" fill="white"></rect></clipPath></defs></svg>