<svg width="48" height="48" viewBox="0 0 48 48" fill="none" xmlns="http://www.w3.org/2000/svg">
<path d="M4.2998 38.9C0.699804 34.2 1.5998 27.5 6.2998 23.9L26.1998 8.5C30.8998 4.9 37.5999 5.8 41.1999 10.5C44.7999 15.2 43.8999 21.9 39.1999 25.5L19.2998 40.9C14.5998 44.5 7.8998 43.6 4.2998 38.9Z" fill="#F6EBE7"/>
<path d="M41.1999 10.5C37.5999 5.8 30.8998 4.9 26.1998 8.5L7.5998 22.9C7.4998 23 7.3998 23 7.2998 23.1L6.2998 23.9C1.5998 27.5 0.699804 34.2 4.2998 38.9C7.8998 43.6 14.5998 44.5 19.2998 40.9L39.1999 25.6C43.9999 21.9 44.7999 15.2 41.1999 10.5ZM38.6999 24.7L18.6998 40.1C14.3998 43.4 8.29981 42.6 5.09981 38.3C1.79981 34 2.5998 28 6.7998 24.7L8.19981 23.6C10.4998 22.1 13.5998 22 15.9998 23.3C18.4998 24.6 20.2998 27.3 19.5998 31.2C19.1998 33.4 18.1998 34.9 16.9998 35.7C15.7998 36.5 14.2998 36.8 12.8998 36.5C11.4998 36.2 10.1998 35.5 9.39981 34.5C8.59981 33.5 8.19981 32.1 8.69981 30.4C8.89981 29.6 9.7998 28.6 10.8998 28C11.9998 27.5 13.0998 27.4 14.0998 28.3C14.9998 29.2 15.0998 30.2 14.6998 30.9C14.2998 31.7 13.4998 32.1 12.7998 31.8L12.4998 32.8C13.7998 33.2 15.0998 32.4 15.5998 31.3C16.1998 30.2 16.0998 28.7 14.7998 27.5C13.3998 26.2 11.7998 26.3 10.4998 27C9.1998 27.7 8.1998 28.9 7.7998 30C7.2998 31.9 7.69981 33.7 8.69981 35C9.69981 36.3 11.1998 37.1 12.7998 37.4C14.3998 37.7 16.1998 37.4 17.5998 36.4C19.0998 35.4 20.1998 33.7 20.5998 31.3C21.3998 26.9 19.3998 23.8 16.4998 22.3C14.7998 21.4 12.8998 21.1 10.9998 21.4L26.7998 9.3C31.0998 6 37.1999 6.8 40.3999 11.1C43.6999 15.4 42.8999 21.5 38.6999 24.7Z" fill="black"/>
<path d="M23.7002 33C24.3002 27.7 29.0001 31.6 30.3001 31.7V28C31.2001 25 32.6001 25.5 34.6001 26C35.8001 27.1 35.2001 30.2 34.8001 31.6C35.0001 31.5 35.8001 31 37.6001 30C39.9001 29.2 40.7002 29.9 41.5002 31.3C42.1002 32.5 40.3001 34.2 39.3001 34.9C38.1001 35.1 35.8002 35.6 36.5002 35.8C37.4002 36.1 39.0002 38.5 39.7002 39.7C40.1002 40.9 39.9002 40.5 37.7002 42.2C35.6002 42.3 33.5001 39.8 32.8001 38.5C32.7001 38.8 31.9001 40 30.3001 42.3C27.3001 43.9 26.8002 41.2 26.9002 39.7L28.0002 37.4C28.2002 37.2 28.6001 36.7 28.8001 36C25.9001 35.8 24.2002 33.9 23.7002 33Z" fill="white"/>
<path d="M34.7002 34.8C34.7002 35.9 33.8002 36.8 32.7002 36.8C31.6002 36.8 30.7002 35.9 30.7002 34.8C30.7002 33.7 31.6002 32.8 32.7002 32.8C33.9002 32.8 34.7002 33.7 34.7002 34.8Z" fill="#F6EBE7"/>
<path d="M32.7998 32.8C31.6998 32.8 30.7998 33.7 30.7998 34.8C30.7998 35.9 31.6998 36.8 32.7998 36.8C33.8998 36.8 34.7998 35.9 34.7998 34.8C34.6998 33.7 33.7998 32.8 32.7998 32.8ZM32.7998 35.7C32.2998 35.7 31.7998 35.3 31.7998 34.7C31.7998 34.1 32.1998 33.7 32.7998 33.7C33.2998 33.7 33.7998 34.1 33.7998 34.7C33.7998 35.3 33.2998 35.7 32.7998 35.7Z" fill="black"/>
<path d="M41.8998 30.9C41.5998 30.1 41.0998 29.6 40.3998 29.3C39.7998 29.1 38.9998 29.1 38.2998 29.3C37.3998 29.5 36.4998 30 35.6998 30.5C35.8998 29.6 35.8998 28.6 35.7998 27.7C35.6998 27 35.4998 26.3 34.9998 25.8C34.4998 25.3 33.8998 24.9 32.9998 24.9C32.0998 24.9 31.3998 25.2 30.8998 25.7C30.3998 26.2 30.0998 26.9 29.8998 27.6C29.5998 28.6 29.5998 29.8 29.6998 30.8C28.7998 30.3 27.6998 29.9 26.5998 29.7C25.8998 29.6 25.1998 29.6 24.5998 29.9C23.8998 30.2 23.4998 30.8 23.1998 31.6C22.9998 32.4 23.0998 33.2 23.3998 33.8C23.7998 34.4 24.2998 34.9 24.9998 35.3C25.9998 35.8 27.0998 36.2 28.0998 36.4C27.4998 37.2 26.7998 38.2 26.3998 39.2C26.1998 39.9 25.9998 40.6 26.0998 41.3C26.1998 42 26.5998 42.7 27.2998 43.2C27.9998 43.7 28.7998 43.8 29.3998 43.6C30.0998 43.4 30.5998 43 31.0998 42.4C31.7998 41.6 32.2998 40.6 32.6998 39.7C33.2998 40.5 33.9998 41.4 34.8998 42.1C35.4998 42.5 36.1998 42.9 36.8998 42.9C37.5998 43 38.3998 42.8 38.9998 42.2C39.6998 41.6 39.9998 41 39.9998 40.3C39.9998 39.6 39.6998 38.9 39.2998 38.3C38.7998 37.5 37.9998 36.7 37.2998 36.1C38.1998 35.8 39.2998 35.4 40.0998 34.8C40.6998 34.4 41.1998 33.9 41.4998 33.2C42.0998 32.5 42.1998 31.7 41.8998 30.9ZM40.8998 32.7C40.6998 33.1 40.2998 33.5 39.7998 33.9C38.7998 34.6 37.3998 35.1 36.3998 35.3C36.1998 35.3 35.9998 35.3 35.8998 35.5C35.6998 35.7 35.7998 36 35.9998 36.2C36.8998 36.8 37.9998 37.8 38.6998 38.8C38.9998 39.3 39.1998 39.8 39.1998 40.2C39.1998 40.6 38.9998 41 38.5998 41.4C38.0998 41.8 37.6998 41.9 37.1998 41.9C36.6998 41.9 36.1998 41.6 35.6998 41.3C34.6998 40.6 33.7998 39.4 33.2998 38.5C33.2998 38.4 33.1998 38.4 33.0998 38.3C33.0998 38.2 32.9998 38.2 32.8998 38.2C32.5998 38.1 32.3998 38.3 32.2998 38.5C31.9998 39.5 31.2998 40.9 30.4998 41.8C30.0998 42.3 29.6998 42.6 29.2998 42.7C28.8998 42.8 28.4998 42.7 27.9998 42.4C27.4998 42 27.2998 41.6 27.1998 41.2C27.0998 40.7 27.1998 40.2 27.3998 39.6C27.7998 38.4 28.6998 37.2 29.4998 36.5C29.6998 36.3 29.6998 36.1 29.5998 35.9C29.4998 35.7 29.3998 35.6 29.1998 35.6C28.1998 35.5 26.6998 35.2 25.5998 34.5C25.0998 34.2 24.5998 33.8 24.3998 33.4C24.1998 33 24.0998 32.5 24.1998 31.9C24.3998 31.3 24.6998 31 24.9998 30.8C25.3998 30.6 25.8998 30.6 26.4998 30.7C27.6998 30.9 29.0998 31.5 29.9998 32.1C29.9998 32.1 30.0998 32.1 30.1998 32.2C30.2998 32.2 30.3998 32.2 30.4998 32.2C30.7998 32.2 30.9998 31.9 30.8998 31.6C30.6998 30.6 30.6998 29.1 30.9998 27.9C31.1998 27.3 31.3998 26.8 31.6998 26.5C31.9998 26.2 32.4998 26 33.0998 26C33.6998 26 34.0998 26.2 34.2998 26.5C34.5998 26.8 34.6998 27.3 34.7998 27.9C34.9998 29.1 34.6998 30.6 34.3998 31.6C34.2998 31.9 34.4998 32.2 34.6998 32.2C34.8998 32.3 35.0998 32.2 35.1998 32C35.9998 31.4 37.2998 30.6 38.4998 30.4C39.0998 30.3 39.5998 30.2 39.9998 30.4C40.3998 30.5 40.6998 30.8 40.8998 31.4C41.1998 31.8 41.0998 32.3 40.8998 32.7Z" fill="black"/>
</svg>
