<svg width="48" height="48" viewBox="0 0 48 48" fill="none" xmlns="http://www.w3.org/2000/svg">
<path d="M16 12.5H8C4.96243 12.5 2.5 14.9624 2.5 18V39C2.5 42.0376 4.96243 44.5 8 44.5H16C19.0376 44.5 21.5 42.0376 21.5 39V18C21.5 14.9624 19.0376 12.5 16 12.5Z" fill="#F6EBE7" stroke="black"/>
<path d="M15.5 4.5H8.5V12.5H15.5V4.5Z" fill="white" stroke="black"/>
<path d="M8 4H4V5H8V4Z" fill="black"/>
<path d="M26.7679 6.1805C26.6596 5.28703 27.357 4.5 28.257 4.5H43.7428C44.6428 4.5 45.3402 5.28703 45.2319 6.1805L41.7168 35.1805C41.6255 35.9336 40.9863 36.5 40.2277 36.5H31.7721C31.0135 36.5 30.3743 35.9336 30.283 35.1805L26.7679 6.1805Z" fill="#F6EBE7" stroke="black"/>
<path d="M30.9277 8.375L33.0717 26.0625" stroke="black"/>
<path d="M32.5 36.5H39.5V44.5H32.5V36.5Z" stroke="black"/>
<path d="M11.5 20.5H2.5V35.5H11.5V20.5Z" fill="white" stroke="black"/>
</svg>
