<svg width="48" height="48" viewBox="0 0 48 48" fill="none" xmlns="http://www.w3.org/2000/svg">
<path d="M19.9999 3.70002C23.0999 6.30002 22.7999 11.6 19.3999 15.6C15.9999 19.6 10.7999 20.7 7.69989 18C4.69989 15.5 4.99989 10.1 8.39989 6.20002C11.7999 2.20002 16.9999 1.10002 19.9999 3.70002Z" fill="#F6EBE7"/>
<path d="M41 20C41 30.5 33.4 39 24 39C14.6 39 7 30.5 7 20C7 9.5 14.6 1 24 1C33.4 1 41 9.5 41 20Z" fill="#F6EBE7"/>
<path d="M36 30.5C36 38.5 29.2 47 24 47C17.8 47 12 38.5 12 30.5C12 22.5 16.8 15 24 15C31.2 15 36 22.5 36 30.5Z" fill="white"/>
<path d="M24 1C21.7 1 19.5 1.5 17.4 2.5C14.5 1.9 10.9 3.2 8.29999 6.2C5.09999 9.9 4.69999 14.7 7.09999 17.5C6.99999 18.3 6.99999 19.1 6.99999 20C6.99999 25.4 8.99999 30.3 12.3 33.8C13.6 40.7 18.7 47 24 47C28.5 47 34.1 40.7 35.6 33.9C38.9 30.4 41 25.5 41 20C41 9.5 33.4 1 24 1ZM9.09999 6.8C11.1 4.5 13.6 3.3 15.8 3.3C11.6 5.9 8.39999 10.5 7.39999 16C5.99999 13.7 6.49999 9.9 9.09999 6.8ZM34.7 33.4C34.6 34 34.4 34.6 34.2 35.2C33.5 37.4 32.4 39.4 31.1 41.2C30 42.7 28.7 43.9 27.5 44.8C26.2 45.6 25 46 24 46C21.4 46 18.6 44.2 16.5 41.2C15.2 39.4 14.2 37.3 13.6 35.1C13.4 34.5 13.3 34 13.2 33.4C13 32.5 13 31.5 13 30.6C13 26.8 14.2 23.1 16.1 20.4C17.3 18.7 18.8 17.5 20.5 16.8C20.5 16.8 20.6 16.8 20.7 16.7C21.7 16.3 22.8 16.1 24 16.1C27.2 16.1 29.9 17.8 31.9 20.4C33.9 23.1 35 26.7 35 30.6C35 31.5 34.9 32.4 34.7 33.4ZM24 15H23.8C24.1 14.8 24.3 14.7 24.6 14.5C26.3 13.3 28 11.5 28.5 9.1L27.5 8.9C27.1 10.9 25.7 12.5 24 13.7C22.6 14.7 21.1 15.4 20.3 15.7C20.3 15.7 20.2 15.7 20.1 15.8C20.1 15.8 20 15.8 20 15.9C19.4 16.2 18.8 16.5 18.2 16.9C17.9 17.2 17.6 17.4 17.2 17.7C14 20.5 12 25.4 12 30.5C12 31 12 31.5 12.1 32C9.49999 28.8 7.99999 24.6 7.99999 20C7.99999 19.4 7.99999 18.9 8.09999 18.3C8.09999 17.9 8.19999 17.5 8.19999 17.1C9.09999 11 12.7 5.9 17.6 3.5C18 3.3 18.4 3.1 18.9 3C20.5 2.4 22.3 2 24 2C32.7 2 40 10 40 20C40 24.6 38.5 28.8 35.9 32C35.9 31.5 36 31 36 30.5C36 22.5 31.2 15 24 15Z" fill="black"/>
<path d="M19.0002 29.4C18.0002 29.3 17.2002 28.8 16.7002 28.3L17.4002 27.6C17.8002 27.9 18.4002 28.3 19.2002 28.4C20.0002 28.5 20.9002 28.4 21.7002 27.6L22.4002 28.3C21.2001 29.4 20.0002 29.6 19.0002 29.4Z" fill="black"/>
<path d="M28.0002 29.4C27.0002 29.3 26.2002 28.8 25.7002 28.3L26.4002 27.6C26.8002 27.9 27.4002 28.3 28.2002 28.4C29.0002 28.5 29.9002 28.4 30.7002 27.6L31.4002 28.3C30.2001 29.4 29.0002 29.6 28.0002 29.4Z" fill="black"/>
<path d="M24.2001 40.9C22.6001 41.2 21.0001 40.7 20.1001 39.8L20.8001 39.1C21.4001 39.7 22.6001 40.1 24.0001 39.9C25.4001 39.7 26.9001 38.9 28.0001 37.2L28.8001 37.8C27.6001 39.7 25.9001 40.6 24.2001 40.9Z" fill="black"/>
</svg>
