<svg width="48" height="48" viewBox="0 0 48 48" fill="none" xmlns="http://www.w3.org/2000/svg">
<path d="M26.7002 17.3C26.7002 24.3 21.7002 26.3 15.7002 31.6C9.5002 26.3 4.7002 24.3 4.7002 17.3C4.7002 10.4 12.5002 8.30008 15.6002 14.5C15.6002 14.6 15.8002 14.6 15.8002 14.5C18.8002 8.30008 26.7002 10.4 26.7002 17.3Z" fill="#F6EBE7"/>
<path d="M16.3001 13.6001C16.2001 13.6001 16.2001 13.7001 16.3001 13.6001C16.1001 13.9001 16.0001 14.1001 15.9001 14.3001L15.8001 14.4001C15.8001 14.5001 15.6001 14.5001 15.6001 14.4001C15.6001 14.4001 15.6001 14.3001 15.5001 14.3001C15.4001 14.1001 15.3001 13.9001 15.1001 13.7001C15.1001 13.7001 15.1001 13.6001 15.0001 13.6001C11.7001 8.50003 4.6001 10.7001 4.6001 17.3001C4.6001 22.9001 7.7001 25.3001 12.0001 28.7001C13.1001 29.6001 14.3001 30.5001 15.6001 31.6001C16.9001 30.4001 18.2001 29.4001 19.4001 28.5001C23.6001 25.2001 26.6001 22.8001 26.6001 17.4001C26.7001 10.7001 19.6001 8.50003 16.3001 13.6001ZM22.7001 24.4001C21.7001 25.4001 20.6001 26.3001 19.3001 27.3001C19.2001 27.4001 19.0001 27.5001 18.9001 27.6001C17.9001 28.4001 16.8001 29.2001 15.7001 30.2001C14.7001 29.3001 13.7001 28.6001 12.8001 27.8001C12.5001 27.6001 12.3001 27.4001 12.0001 27.2001C10.7001 26.2001 9.5001 25.2001 8.6001 24.3001C6.8001 22.4001 5.7001 20.4001 5.7001 17.2001C5.7001 14.1001 7.4001 12.3001 9.2001 11.8001C11.1001 11.3001 13.3001 12.1001 14.7001 14.8001C15.1001 15.6001 16.3001 15.6001 16.7001 14.8001C18.0001 12.1001 20.3001 11.3001 22.2001 11.8001C24.1001 12.3001 25.8001 14.1001 25.8001 17.2001C25.7001 20.5001 24.6001 22.5001 22.7001 24.4001Z" fill="black"/>
<path d="M42.2998 24.9C42.2998 31.9 37.2998 33.9 31.2998 39.2C25.0998 33.9 20.2998 31.9 20.2998 24.9C20.2998 18 28.0999 15.9 31.1999 22.1C31.1999 22.2 31.3998 22.2 31.3998 22.1C34.4998 15.9 42.2998 17.9 42.2998 24.9Z" fill="white"/>
<path d="M31.8998 21.2C31.6998 21.5 31.5998 21.7 31.4998 21.9C31.4998 22 31.4998 22 31.3998 22C31.3998 22.1 31.2999 22.1 31.1999 22C31.1999 22 31.1998 21.9 31.0998 21.9C30.9998 21.7 30.8999 21.5 30.6999 21.3V21.2C27.3999 16.1 20.2998 18.3 20.2998 24.9C20.2998 30.5 23.3999 32.9 27.6999 36.3C28.7999 37.2 29.9998 38.1 31.2998 39.2C32.5998 38 33.8998 37 35.0998 36.1C39.2998 32.8 42.2998 30.4 42.2998 25C42.2998 18.3 35.1998 16.1 31.8998 21.2ZM38.2998 32C37.2998 33 36.1999 33.9 34.8999 34.9C34.7999 35 34.5998 35.1 34.4998 35.2C33.4998 36 32.3998 36.8 31.2998 37.8C30.2998 36.9 29.2998 36.2 28.3998 35.4C28.0998 35.2 27.8998 35 27.5998 34.8C26.2999 33.8 25.0999 32.8 24.1999 31.9C22.3999 30 21.2998 28 21.2998 24.8C21.2998 21.7 22.9998 19.9 24.8998 19.4C26.6998 18.9 28.9998 19.7 30.3998 22.4C30.7998 23.2 31.9999 23.2 32.3999 22.4C33.6999 19.7 35.9999 19 37.8999 19.4C39.7999 19.9 41.3999 21.7 41.3999 24.8C41.2999 28.1 40.1998 30.1 38.2998 32Z" fill="black"/>
<path d="M34.8001 5.40002L35.5001 6.00002L32.4001 9.90002L31.6001 9.30002L34.8001 5.40002Z" fill="black"/>
<path d="M41.4001 12.1L41.7001 13.1L36.9001 14.5L36.6001 13.5L41.4001 12.1Z" fill="black"/>
<path d="M27.6001 1.1L26.6001 1L26.1001 6L27.1001 6.1L27.6001 1.1Z" fill="black"/>
</svg>
