<svg width="48" height="48" viewBox="0 0 48 48" fill="none" xmlns="http://www.w3.org/2000/svg">
<g clip-path="url(#clip0)">
<path d="M44 21H33C34.2 20.1 35 18.6 35 17C35 14.2 32.8 12 30 12H18C15.2 12 13 14.2 13 17C13 18.6 13.8 20.1 15 21H4C1.8 21 0 22.8 0 25C0 27.2 1.8 29 4 29H6V47C6 47.5 6.5 48 7 48H11C11.5 48 12 47.5 12 47V38H36V47C36 47.5 36.5 48 37 48H41C41.5 48 42 47.5 42 47V29H44C46.2 29 48 27.2 48 25C48 22.8 46.2 21 44 21ZM14 17C14 14.8 15.8 13 18 13H28C29.4 13 30.5 14.1 30.5 15.5C30.5 16.9 29.4 18 28 18H19.5C19 18 18.5 17.5 18.5 17C18.5 16.5 19 16 19.5 16H24V15H19.5C18.4 15 17.5 15.9 17.5 17C17.5 18.1 18.4 19 19.5 19H28C29.9 19 31.5 17.4 31.5 15.5C31.5 14.5 31.1 13.7 30.5 13C32.5 13.2 34 14.9 34 17C34 19.2 32.2 21 30 21H18C15.8 21 14 19.2 14 17ZM11 47H7V29H11V47ZM36 37H12V35H36V37ZM36 34H12V29H36V34ZM41 47H37V29H41V47ZM44 28H4C2.3 28 1 26.7 1 25C1 23.3 2.3 22 4 22H44C45.7 22 47 23.3 47 25C47 26.7 45.7 28 44 28Z" fill="black"/>
<path d="M11 29H7V47H11V29Z" fill="#F6EBE7"/>
<path d="M41 29H37V47H41V29Z" fill="#F6EBE7"/>
<path d="M47 25C47 26.7 45.7 28 44 28H4C2.3 28 1 26.7 1 25C1 23.3 2.3 22 4 22H44C45.7 22 47 23.3 47 25Z" fill="#F6EBE7"/>
<path d="M36 35H12V37H36V35Z" fill="#F6EBE7"/>
<path d="M28.3998 10.3L27.5998 9.70001L29.3998 7.40001L27.2998 4.70001L29.2998 2.60001L27.5998 0.300012L28.3998 -0.299988L30.6999 2.70001L28.6999 4.80001L30.5998 7.40001L28.3998 10.3Z" fill="black"/>
<path d="M23.3998 10.3L22.5998 9.70001L24.3998 7.40001L22.2998 4.70001L24.2998 2.60001L22.5998 0.300012L23.3998 -0.299988L25.6999 2.70001L23.6999 4.80001L25.5998 7.40001L23.3998 10.3Z" fill="black"/>
<path d="M18.3998 10.3L17.5998 9.70001L19.3998 7.40001L17.2998 4.70001L19.2998 2.60001L17.5998 0.300012L18.3998 -0.299988L20.6999 2.70001L18.6999 4.80001L20.5998 7.40001L18.3998 10.3Z" fill="black"/>
</g>
<defs>
<clipPath id="clip0">
<rect width="48" height="48" fill="white"/>
</clipPath>
</defs>
</svg>
